<mxfile host="app.diagrams.net" agent="Mozilla/5.0 (X11; Linux x86_64) AppleWebKit/537.36 (KHTML, like Gecko) Chrome/127.0.0.0 Safari/537.36" version="24.7.8">
  <diagram name="PÃ¡gina-1" id="F64ECn8Fv8Pn40EosmOE">
    <mxGraphModel dx="2768" dy="1077" grid="1" gridSize="10" guides="1" tooltips="1" connect="1" arrows="1" fold="1" page="1" pageScale="1" pageWidth="827" pageHeight="1169" math="0" shadow="0">
      <root>
        <mxCell id="0" />
        <mxCell id="1" parent="0" />
        <mxCell id="TFXRRNLh6fONxXUD0vy4-1" value="Persona" style="rounded=0;whiteSpace=wrap;html=1;fillColor=#dae8fc;strokeColor=#6c8ebf;" vertex="1" parent="1">
          <mxGeometry x="222.5" y="520" width="110" height="40" as="geometry" />
        </mxCell>
        <mxCell id="TFXRRNLh6fONxXUD0vy4-2" value="Nombre" style="ellipse;whiteSpace=wrap;html=1;" vertex="1" parent="1">
          <mxGeometry x="157.5" y="420" width="70" height="30" as="geometry" />
        </mxCell>
        <mxCell id="TFXRRNLh6fONxXUD0vy4-3" value="Apellido" style="ellipse;whiteSpace=wrap;html=1;" vertex="1" parent="1">
          <mxGeometry x="337.5" y="460" width="70" height="30" as="geometry" />
        </mxCell>
        <mxCell id="TFXRRNLh6fONxXUD0vy4-4" value="Cedula" style="ellipse;whiteSpace=wrap;html=1;" vertex="1" parent="1">
          <mxGeometry x="307.5" y="420" width="60" height="30" as="geometry" />
        </mxCell>
        <mxCell id="TFXRRNLh6fONxXUD0vy4-5" value="Fecha" style="ellipse;whiteSpace=wrap;html=1;" vertex="1" parent="1">
          <mxGeometry x="240" y="410" width="60" height="30" as="geometry" />
        </mxCell>
        <mxCell id="TFXRRNLh6fONxXUD0vy4-6" value="&lt;u&gt;id_Persona&lt;/u&gt;" style="ellipse;whiteSpace=wrap;html=1;" vertex="1" parent="1">
          <mxGeometry x="122.5" y="460" width="75" height="30" as="geometry" />
        </mxCell>
        <mxCell id="TFXRRNLh6fONxXUD0vy4-7" value="" style="endArrow=none;html=1;rounded=0;entryX=1;entryY=1;entryDx=0;entryDy=0;exitX=0;exitY=0;exitDx=0;exitDy=0;" edge="1" parent="1" source="TFXRRNLh6fONxXUD0vy4-1" target="TFXRRNLh6fONxXUD0vy4-6">
          <mxGeometry width="50" height="50" relative="1" as="geometry">
            <mxPoint x="547.5" y="530" as="sourcePoint" />
            <mxPoint x="597.5" y="480" as="targetPoint" />
          </mxGeometry>
        </mxCell>
        <mxCell id="TFXRRNLh6fONxXUD0vy4-9" value="" style="endArrow=none;html=1;rounded=0;entryX=1;entryY=1;entryDx=0;entryDy=0;exitX=0.25;exitY=0;exitDx=0;exitDy=0;" edge="1" parent="1" source="TFXRRNLh6fONxXUD0vy4-1" target="TFXRRNLh6fONxXUD0vy4-2">
          <mxGeometry width="50" height="50" relative="1" as="geometry">
            <mxPoint x="547.5" y="530" as="sourcePoint" />
            <mxPoint x="597.5" y="480" as="targetPoint" />
          </mxGeometry>
        </mxCell>
        <mxCell id="TFXRRNLh6fONxXUD0vy4-10" value="" style="endArrow=none;html=1;rounded=0;entryX=0.5;entryY=1;entryDx=0;entryDy=0;exitX=0.417;exitY=0;exitDx=0;exitDy=0;exitPerimeter=0;" edge="1" parent="1" source="TFXRRNLh6fONxXUD0vy4-1" target="TFXRRNLh6fONxXUD0vy4-5">
          <mxGeometry width="50" height="50" relative="1" as="geometry">
            <mxPoint x="267.5" y="460" as="sourcePoint" />
            <mxPoint x="267.5" y="420" as="targetPoint" />
            <Array as="points" />
          </mxGeometry>
        </mxCell>
        <mxCell id="TFXRRNLh6fONxXUD0vy4-11" value="" style="endArrow=none;html=1;rounded=0;entryX=0.279;entryY=0.976;entryDx=0;entryDy=0;entryPerimeter=0;exitX=0.75;exitY=0;exitDx=0;exitDy=0;" edge="1" parent="1" source="TFXRRNLh6fONxXUD0vy4-1" target="TFXRRNLh6fONxXUD0vy4-4">
          <mxGeometry width="50" height="50" relative="1" as="geometry">
            <mxPoint x="277.5" y="490" as="sourcePoint" />
            <mxPoint x="327.5" y="440" as="targetPoint" />
          </mxGeometry>
        </mxCell>
        <mxCell id="TFXRRNLh6fONxXUD0vy4-13" value="" style="endArrow=none;html=1;rounded=0;exitX=0.402;exitY=0.957;exitDx=0;exitDy=0;exitPerimeter=0;entryX=1;entryY=0;entryDx=0;entryDy=0;" edge="1" parent="1" source="TFXRRNLh6fONxXUD0vy4-3" target="TFXRRNLh6fONxXUD0vy4-1">
          <mxGeometry width="50" height="50" relative="1" as="geometry">
            <mxPoint x="507.5" y="530" as="sourcePoint" />
            <mxPoint x="336.5" y="510" as="targetPoint" />
          </mxGeometry>
        </mxCell>
        <mxCell id="TFXRRNLh6fONxXUD0vy4-14" value="" style="triangle;whiteSpace=wrap;html=1;rotation=90;fillColor=#fff2cc;strokeColor=#d6b656;" vertex="1" parent="1">
          <mxGeometry x="247.5" y="585" width="60" height="80" as="geometry" />
        </mxCell>
        <mxCell id="TFXRRNLh6fONxXUD0vy4-15" value="" style="endArrow=none;html=1;rounded=0;entryX=0.5;entryY=1;entryDx=0;entryDy=0;" edge="1" parent="1" source="TFXRRNLh6fONxXUD0vy4-14" target="TFXRRNLh6fONxXUD0vy4-1">
          <mxGeometry width="50" height="50" relative="1" as="geometry">
            <mxPoint x="507.5" y="670" as="sourcePoint" />
            <mxPoint x="557.5" y="620" as="targetPoint" />
          </mxGeometry>
        </mxCell>
        <mxCell id="TFXRRNLh6fONxXUD0vy4-16" value="Maestro_zapatero" style="shape=ext;margin=3;double=1;whiteSpace=wrap;html=1;align=center;rounded=0;glass=0;fillStyle=solid;strokeColor=#666666;verticalAlign=middle;fontFamily=Helvetica;fontSize=12;fontColor=#333333;fillColor=#f5f5f5;" vertex="1" parent="1">
          <mxGeometry x="221.25" y="705" width="112.5" height="35" as="geometry" />
        </mxCell>
        <mxCell id="TFXRRNLh6fONxXUD0vy4-17" value="Ayudante" style="shape=ext;margin=3;double=1;whiteSpace=wrap;html=1;align=center;rounded=0;glass=0;fillStyle=solid;strokeColor=#666666;verticalAlign=middle;fontFamily=Helvetica;fontSize=12;fontColor=#333333;fillColor=#f5f5f5;" vertex="1" parent="1">
          <mxGeometry x="407.5" y="740" width="90" height="30" as="geometry" />
        </mxCell>
        <mxCell id="TFXRRNLh6fONxXUD0vy4-18" value="Cortador" style="shape=ext;margin=3;double=1;whiteSpace=wrap;html=1;align=center;rounded=0;glass=0;fillStyle=solid;strokeColor=#666666;verticalAlign=middle;fontFamily=Helvetica;fontSize=12;fontColor=#333333;fillColor=#f5f5f5;" vertex="1" parent="1">
          <mxGeometry x="-116.25" y="685" width="100" height="30" as="geometry" />
        </mxCell>
        <mxCell id="TFXRRNLh6fONxXUD0vy4-19" value="" style="endArrow=none;html=1;rounded=0;entryX=1;entryY=0.5;entryDx=0;entryDy=0;exitX=0.5;exitY=0;exitDx=0;exitDy=0;entryPerimeter=0;" edge="1" parent="1" source="TFXRRNLh6fONxXUD0vy4-16" target="TFXRRNLh6fONxXUD0vy4-26">
          <mxGeometry width="50" height="50" relative="1" as="geometry">
            <mxPoint x="166.5" y="730" as="sourcePoint" />
            <mxPoint x="487.5" y="760" as="targetPoint" />
          </mxGeometry>
        </mxCell>
        <mxCell id="TFXRRNLh6fONxXUD0vy4-20" value="" style="endArrow=none;html=1;rounded=0;entryX=0.5;entryY=0;entryDx=0;entryDy=0;exitX=0.5;exitY=0;exitDx=0;exitDy=0;" edge="1" parent="1" source="TFXRRNLh6fONxXUD0vy4-17" target="TFXRRNLh6fONxXUD0vy4-14">
          <mxGeometry width="50" height="50" relative="1" as="geometry">
            <mxPoint x="387.5" y="720" as="sourcePoint" />
            <mxPoint x="377.5" y="670" as="targetPoint" />
          </mxGeometry>
        </mxCell>
        <mxCell id="TFXRRNLh6fONxXUD0vy4-22" value="" style="endArrow=none;html=1;rounded=0;exitX=0.5;exitY=0;exitDx=0;exitDy=0;entryX=0.5;entryY=1;entryDx=0;entryDy=0;" edge="1" parent="1" source="TFXRRNLh6fONxXUD0vy4-18" target="TFXRRNLh6fONxXUD0vy4-14">
          <mxGeometry width="50" height="50" relative="1" as="geometry">
            <mxPoint x="255" y="920" as="sourcePoint" />
            <mxPoint x="142.5" y="640" as="targetPoint" />
          </mxGeometry>
        </mxCell>
        <mxCell id="TFXRRNLh6fONxXUD0vy4-26" value="" style="shape=requiredInterface;html=1;verticalLabelPosition=bottom;sketch=0;rotation=90;" vertex="1" parent="1">
          <mxGeometry x="255" y="600" width="45" height="100" as="geometry" />
        </mxCell>
        <mxCell id="TFXRRNLh6fONxXUD0vy4-28" value="" style="endArrow=none;html=1;rounded=0;exitX=1;exitY=0.5;exitDx=0;exitDy=0;exitPerimeter=0;" edge="1" parent="1" source="TFXRRNLh6fONxXUD0vy4-26" target="TFXRRNLh6fONxXUD0vy4-14">
          <mxGeometry width="50" height="50" relative="1" as="geometry">
            <mxPoint x="437.5" y="810" as="sourcePoint" />
            <mxPoint x="487.5" y="760" as="targetPoint" />
          </mxGeometry>
        </mxCell>
        <mxCell id="TFXRRNLh6fONxXUD0vy4-29" value="Salario" style="ellipse;whiteSpace=wrap;html=1;" vertex="1" parent="1">
          <mxGeometry x="134.54" y="820" width="70" height="20" as="geometry" />
        </mxCell>
        <mxCell id="TFXRRNLh6fONxXUD0vy4-31" value="Salario" style="ellipse;whiteSpace=wrap;html=1;" vertex="1" parent="1">
          <mxGeometry x="-30" y="735" width="70" height="20" as="geometry" />
        </mxCell>
        <mxCell id="TFXRRNLh6fONxXUD0vy4-32" value="Salario" style="ellipse;whiteSpace=wrap;html=1;" vertex="1" parent="1">
          <mxGeometry x="440" y="820" width="70" height="20" as="geometry" />
        </mxCell>
        <mxCell id="TFXRRNLh6fONxXUD0vy4-33" value="" style="endArrow=none;html=1;rounded=0;exitX=0.747;exitY=0.036;exitDx=0;exitDy=0;exitPerimeter=0;entryX=0.683;entryY=1.012;entryDx=0;entryDy=0;entryPerimeter=0;" edge="1" parent="1" source="TFXRRNLh6fONxXUD0vy4-31" target="TFXRRNLh6fONxXUD0vy4-18">
          <mxGeometry width="50" height="50" relative="1" as="geometry">
            <mxPoint x="-43.75" y="735" as="sourcePoint" />
            <mxPoint x="-53.75" y="735" as="targetPoint" />
            <Array as="points" />
          </mxGeometry>
        </mxCell>
        <mxCell id="TFXRRNLh6fONxXUD0vy4-35" value="" style="endArrow=none;html=1;rounded=0;entryX=0.25;entryY=1;entryDx=0;entryDy=0;exitX=0.5;exitY=0;exitDx=0;exitDy=0;" edge="1" parent="1" source="TFXRRNLh6fONxXUD0vy4-29" target="TFXRRNLh6fONxXUD0vy4-16">
          <mxGeometry width="50" height="50" relative="1" as="geometry">
            <mxPoint x="164.54" y="822.5" as="sourcePoint" />
            <mxPoint x="519.54" y="732.5" as="targetPoint" />
          </mxGeometry>
        </mxCell>
        <mxCell id="TFXRRNLh6fONxXUD0vy4-36" value="" style="endArrow=none;html=1;rounded=0;entryX=0.31;entryY=1.033;entryDx=0;entryDy=0;entryPerimeter=0;exitX=0.5;exitY=0;exitDx=0;exitDy=0;" edge="1" parent="1" source="TFXRRNLh6fONxXUD0vy4-32" target="TFXRRNLh6fONxXUD0vy4-17">
          <mxGeometry width="50" height="50" relative="1" as="geometry">
            <mxPoint x="292.5" y="780" as="sourcePoint" />
            <mxPoint x="342.5" y="730" as="targetPoint" />
          </mxGeometry>
        </mxCell>
        <mxCell id="TFXRRNLh6fONxXUD0vy4-607" value="Proveedor" style="rounded=0;whiteSpace=wrap;html=1;fillColor=#dae8fc;strokeColor=#6c8ebf;" vertex="1" parent="1">
          <mxGeometry x="915" y="404" width="150" height="50" as="geometry" />
        </mxCell>
        <mxCell id="TFXRRNLh6fONxXUD0vy4-610" value="" style="endArrow=classic;html=1;rounded=0;exitX=0.5;exitY=1;exitDx=0;exitDy=0;entryX=1;entryY=0;entryDx=0;entryDy=0;" edge="1" parent="1" source="TFXRRNLh6fONxXUD0vy4-703" target="TFXRRNLh6fONxXUD0vy4-620">
          <mxGeometry width="50" height="50" relative="1" as="geometry">
            <mxPoint x="1090" y="680" as="sourcePoint" />
            <mxPoint x="875" y="500" as="targetPoint" />
            <Array as="points">
              <mxPoint x="991" y="660" />
            </Array>
          </mxGeometry>
        </mxCell>
        <mxCell id="TFXRRNLh6fONxXUD0vy4-611" value="" style="endArrow=none;html=1;rounded=0;entryX=0.5;entryY=1;entryDx=0;entryDy=0;exitX=0.5;exitY=0;exitDx=0;exitDy=0;" edge="1" parent="1" source="TFXRRNLh6fONxXUD0vy4-703" target="TFXRRNLh6fONxXUD0vy4-607">
          <mxGeometry width="50" height="50" relative="1" as="geometry">
            <mxPoint x="990" y="544" as="sourcePoint" />
            <mxPoint x="290" y="394" as="targetPoint" />
          </mxGeometry>
        </mxCell>
        <mxCell id="TFXRRNLh6fONxXUD0vy4-854" style="edgeStyle=orthogonalEdgeStyle;rounded=0;orthogonalLoop=1;jettySize=auto;html=1;exitX=1;exitY=0.5;exitDx=0;exitDy=0;fontFamily=Helvetica;fontSize=12;fontColor=default;" edge="1" parent="1" source="TFXRRNLh6fONxXUD0vy4-620" target="TFXRRNLh6fONxXUD0vy4-853">
          <mxGeometry relative="1" as="geometry" />
        </mxCell>
        <mxCell id="TFXRRNLh6fONxXUD0vy4-856" style="edgeStyle=orthogonalEdgeStyle;rounded=0;orthogonalLoop=1;jettySize=auto;html=1;exitX=0.5;exitY=1;exitDx=0;exitDy=0;entryX=0.5;entryY=0;entryDx=0;entryDy=0;fontFamily=Helvetica;fontSize=12;fontColor=default;" edge="1" parent="1" source="TFXRRNLh6fONxXUD0vy4-620" target="TFXRRNLh6fONxXUD0vy4-850">
          <mxGeometry relative="1" as="geometry" />
        </mxCell>
        <mxCell id="TFXRRNLh6fONxXUD0vy4-859" style="edgeStyle=orthogonalEdgeStyle;rounded=0;orthogonalLoop=1;jettySize=auto;html=1;exitX=0.75;exitY=1;exitDx=0;exitDy=0;entryX=0.5;entryY=0;entryDx=0;entryDy=0;fontFamily=Helvetica;fontSize=12;fontColor=default;" edge="1" parent="1" source="TFXRRNLh6fONxXUD0vy4-620" target="TFXRRNLh6fONxXUD0vy4-851">
          <mxGeometry relative="1" as="geometry" />
        </mxCell>
        <mxCell id="TFXRRNLh6fONxXUD0vy4-860" style="edgeStyle=orthogonalEdgeStyle;rounded=0;orthogonalLoop=1;jettySize=auto;html=1;exitX=1;exitY=0.75;exitDx=0;exitDy=0;entryX=0;entryY=0.5;entryDx=0;entryDy=0;fontFamily=Helvetica;fontSize=12;fontColor=default;" edge="1" parent="1" source="TFXRRNLh6fONxXUD0vy4-620" target="TFXRRNLh6fONxXUD0vy4-852">
          <mxGeometry relative="1" as="geometry" />
        </mxCell>
        <mxCell id="TFXRRNLh6fONxXUD0vy4-620" value="Lote" style="shape=ext;margin=3;double=1;whiteSpace=wrap;html=1;align=center;rounded=0;glass=0;fillStyle=solid;strokeColor=#666666;verticalAlign=middle;fontFamily=Helvetica;fontSize=12;fontColor=#333333;fillColor=#f5f5f5;" vertex="1" parent="1">
          <mxGeometry x="835" y="660" width="95" height="40" as="geometry" />
        </mxCell>
        <mxCell id="TFXRRNLh6fONxXUD0vy4-621" value="id_Proveedor" style="ellipse;whiteSpace=wrap;html=1;align=center;fontStyle=4;rounded=0;glass=0;fillStyle=solid;strokeColor=default;verticalAlign=middle;fontFamily=Helvetica;fontSize=12;fontColor=default;fillColor=default;gradientColor=none;" vertex="1" parent="1">
          <mxGeometry x="860" y="324" width="80" height="25" as="geometry" />
        </mxCell>
        <mxCell id="TFXRRNLh6fONxXUD0vy4-622" value="&lt;u&gt;id_lote&lt;/u&gt;" style="ellipse;whiteSpace=wrap;html=1;align=center;rounded=0;glass=0;fillStyle=solid;strokeColor=default;verticalAlign=middle;fontFamily=Helvetica;fontSize=12;fontColor=default;fillColor=default;gradientColor=none;" vertex="1" parent="1">
          <mxGeometry x="685" y="584" width="80" height="30" as="geometry" />
        </mxCell>
        <mxCell id="TFXRRNLh6fONxXUD0vy4-624" style="edgeStyle=orthogonalEdgeStyle;rounded=0;orthogonalLoop=1;jettySize=auto;html=1;exitX=0.5;exitY=1;exitDx=0;exitDy=0;fontFamily=Helvetica;fontSize=12;fontColor=default;" edge="1" parent="1" source="TFXRRNLh6fONxXUD0vy4-622" target="TFXRRNLh6fONxXUD0vy4-622">
          <mxGeometry relative="1" as="geometry" />
        </mxCell>
        <mxCell id="TFXRRNLh6fONxXUD0vy4-625" value="Fecha_Entrada" style="ellipse;whiteSpace=wrap;html=1;align=center;rounded=0;glass=0;fillStyle=solid;strokeColor=default;verticalAlign=middle;fontFamily=Helvetica;fontSize=12;fontColor=default;fillColor=default;gradientColor=none;" vertex="1" parent="1">
          <mxGeometry x="835" y="520" width="90" height="40" as="geometry" />
        </mxCell>
        <mxCell id="TFXRRNLh6fONxXUD0vy4-627" value="Fecha_de_Agotado" style="ellipse;whiteSpace=wrap;html=1;align=center;rounded=0;glass=0;fillStyle=solid;strokeColor=default;verticalAlign=middle;fontFamily=Helvetica;fontSize=12;fontColor=default;fillColor=default;gradientColor=none;" vertex="1" parent="1">
          <mxGeometry x="725" y="505" width="110" height="40" as="geometry" />
        </mxCell>
        <mxCell id="TFXRRNLh6fONxXUD0vy4-631" value="Molde" style="shape=ext;margin=3;double=1;whiteSpace=wrap;html=1;align=center;rounded=0;glass=0;fillStyle=solid;strokeColor=#666666;verticalAlign=middle;fontFamily=Helvetica;fontSize=12;fontColor=#333333;fillColor=#f5f5f5;" vertex="1" parent="1">
          <mxGeometry x="760" y="820" width="100" height="40" as="geometry" />
        </mxCell>
        <mxCell id="TFXRRNLh6fONxXUD0vy4-632" value="Material" style="shape=ext;margin=3;double=1;whiteSpace=wrap;html=1;align=center;rounded=0;glass=0;fillStyle=solid;strokeColor=#666666;verticalAlign=middle;fontFamily=Helvetica;fontSize=12;fontColor=#333333;fillColor=#f5f5f5;" vertex="1" parent="1">
          <mxGeometry x="600" y="1310" width="100" height="40" as="geometry" />
        </mxCell>
        <mxCell id="TFXRRNLh6fONxXUD0vy4-633" value="Suela" style="shape=ext;margin=3;double=1;whiteSpace=wrap;html=1;align=center;rounded=0;glass=0;fillStyle=solid;strokeColor=#666666;verticalAlign=middle;fontFamily=Helvetica;fontSize=12;fontColor=#333333;fillColor=#f5f5f5;" vertex="1" parent="1">
          <mxGeometry x="1260" y="845" width="100" height="40" as="geometry" />
        </mxCell>
        <mxCell id="TFXRRNLh6fONxXUD0vy4-634" value="&lt;u&gt;id_model&lt;/u&gt;" style="ellipse;whiteSpace=wrap;html=1;align=center;rounded=0;glass=0;fillStyle=solid;strokeColor=default;verticalAlign=middle;fontFamily=Helvetica;fontSize=12;fontColor=default;fillColor=default;gradientColor=none;" vertex="1" parent="1">
          <mxGeometry x="658.75" y="820" width="80" height="30" as="geometry" />
        </mxCell>
        <mxCell id="TFXRRNLh6fONxXUD0vy4-635" value="&lt;u&gt;id_material&lt;/u&gt;" style="ellipse;whiteSpace=wrap;html=1;align=center;rounded=0;glass=0;fillStyle=solid;strokeColor=default;verticalAlign=middle;fontFamily=Helvetica;fontSize=12;fontColor=default;fillColor=default;gradientColor=none;" vertex="1" parent="1">
          <mxGeometry x="525" y="1395" width="80" height="30" as="geometry" />
        </mxCell>
        <mxCell id="TFXRRNLh6fONxXUD0vy4-636" value="&lt;u&gt;id_suela&lt;/u&gt;" style="ellipse;whiteSpace=wrap;html=1;align=center;rounded=0;glass=0;fillStyle=solid;strokeColor=default;verticalAlign=middle;fontFamily=Helvetica;fontSize=12;fontColor=default;fillColor=default;gradientColor=none;" vertex="1" parent="1">
          <mxGeometry x="1220" y="980" width="80" height="30" as="geometry" />
        </mxCell>
        <mxCell id="TFXRRNLh6fONxXUD0vy4-637" value="&lt;u&gt;id_maestro_zapatero&lt;/u&gt;" style="ellipse;whiteSpace=wrap;html=1;align=center;rounded=0;glass=0;fillStyle=solid;strokeColor=default;verticalAlign=middle;fontFamily=Helvetica;fontSize=12;fontColor=default;fillColor=default;gradientColor=none;" vertex="1" parent="1">
          <mxGeometry x="50" y="770" width="125" height="30" as="geometry" />
        </mxCell>
        <mxCell id="TFXRRNLh6fONxXUD0vy4-638" value="&lt;u&gt;id_cortador&lt;/u&gt;" style="ellipse;whiteSpace=wrap;html=1;align=center;rounded=0;glass=0;fillStyle=solid;strokeColor=default;verticalAlign=middle;fontFamily=Helvetica;fontSize=12;fontColor=default;fillColor=default;gradientColor=none;" vertex="1" parent="1">
          <mxGeometry x="-132.5" y="760" width="102.5" height="30" as="geometry" />
        </mxCell>
        <mxCell id="TFXRRNLh6fONxXUD0vy4-639" value="&lt;u&gt;id_ayudante&lt;/u&gt;" style="ellipse;whiteSpace=wrap;html=1;align=center;rounded=0;glass=0;fillStyle=solid;strokeColor=default;verticalAlign=middle;fontFamily=Helvetica;fontSize=12;fontColor=default;fillColor=default;gradientColor=none;" vertex="1" parent="1">
          <mxGeometry x="507.5" y="780" width="90" height="30" as="geometry" />
        </mxCell>
        <mxCell id="TFXRRNLh6fONxXUD0vy4-642" value="Cantidad" style="ellipse;whiteSpace=wrap;html=1;align=center;rounded=0;glass=0;fillStyle=solid;strokeColor=default;verticalAlign=middle;fontFamily=Helvetica;fontSize=12;fontColor=default;fillColor=default;gradientColor=none;" vertex="1" parent="1">
          <mxGeometry x="663.75" y="865" width="70" height="30" as="geometry" />
        </mxCell>
        <mxCell id="TFXRRNLh6fONxXUD0vy4-643" value="Tipo" style="ellipse;whiteSpace=wrap;html=1;align=center;rounded=0;glass=0;fillStyle=solid;strokeColor=default;verticalAlign=middle;fontFamily=Helvetica;fontSize=12;fontColor=default;fillColor=default;gradientColor=none;" vertex="1" parent="1">
          <mxGeometry x="655" y="910" width="70" height="30" as="geometry" />
        </mxCell>
        <mxCell id="TFXRRNLh6fONxXUD0vy4-648" value="" style="endArrow=none;html=1;rounded=0;fontFamily=Helvetica;fontSize=12;fontColor=default;entryX=0.18;entryY=1;entryDx=0;entryDy=0;entryPerimeter=0;exitX=1;exitY=0;exitDx=0;exitDy=0;" edge="1" parent="1" source="TFXRRNLh6fONxXUD0vy4-643" target="TFXRRNLh6fONxXUD0vy4-631">
          <mxGeometry width="50" height="50" relative="1" as="geometry">
            <mxPoint x="710" y="1060" as="sourcePoint" />
            <mxPoint x="740" y="1010" as="targetPoint" />
          </mxGeometry>
        </mxCell>
        <mxCell id="TFXRRNLh6fONxXUD0vy4-649" value="" style="endArrow=none;html=1;rounded=0;fontFamily=Helvetica;fontSize=12;fontColor=default;entryX=0;entryY=1;entryDx=0;entryDy=0;exitX=1;exitY=0.5;exitDx=0;exitDy=0;" edge="1" parent="1" source="TFXRRNLh6fONxXUD0vy4-642" target="TFXRRNLh6fONxXUD0vy4-631">
          <mxGeometry width="50" height="50" relative="1" as="geometry">
            <mxPoint x="710" y="1060" as="sourcePoint" />
            <mxPoint x="760" y="1010" as="targetPoint" />
          </mxGeometry>
        </mxCell>
        <mxCell id="TFXRRNLh6fONxXUD0vy4-650" value="" style="endArrow=none;html=1;rounded=0;fontFamily=Helvetica;fontSize=12;fontColor=default;entryX=0;entryY=0.5;entryDx=0;entryDy=0;exitX=1;exitY=0.5;exitDx=0;exitDy=0;" edge="1" parent="1" source="TFXRRNLh6fONxXUD0vy4-634" target="TFXRRNLh6fONxXUD0vy4-631">
          <mxGeometry width="50" height="50" relative="1" as="geometry">
            <mxPoint x="710" y="1060" as="sourcePoint" />
            <mxPoint x="760" y="1010" as="targetPoint" />
          </mxGeometry>
        </mxCell>
        <mxCell id="TFXRRNLh6fONxXUD0vy4-651" value="Cantidad" style="ellipse;whiteSpace=wrap;html=1;align=center;rounded=0;glass=0;fillStyle=solid;strokeColor=default;verticalAlign=middle;fontFamily=Helvetica;fontSize=12;fontColor=default;fillColor=default;gradientColor=none;" vertex="1" parent="1">
          <mxGeometry x="602.5" y="1430" width="65" height="30" as="geometry" />
        </mxCell>
        <mxCell id="TFXRRNLh6fONxXUD0vy4-652" value="Tipo" style="ellipse;whiteSpace=wrap;html=1;align=center;rounded=0;glass=0;fillStyle=solid;strokeColor=default;verticalAlign=middle;fontFamily=Helvetica;fontSize=12;fontColor=default;fillColor=default;gradientColor=none;" vertex="1" parent="1">
          <mxGeometry x="655" y="1395" width="70" height="30" as="geometry" />
        </mxCell>
        <mxCell id="TFXRRNLh6fONxXUD0vy4-653" value="Talla" style="ellipse;whiteSpace=wrap;html=1;align=center;rounded=0;glass=0;fillStyle=solid;strokeColor=default;verticalAlign=middle;fontFamily=Helvetica;fontSize=12;fontColor=default;fillColor=default;gradientColor=none;" vertex="1" parent="1">
          <mxGeometry x="1360" y="940" width="70" height="30" as="geometry" />
        </mxCell>
        <mxCell id="TFXRRNLh6fONxXUD0vy4-655" value="Tipo" style="ellipse;whiteSpace=wrap;html=1;align=center;rounded=0;glass=0;fillStyle=solid;strokeColor=default;verticalAlign=middle;fontFamily=Helvetica;fontSize=12;fontColor=default;fillColor=default;gradientColor=none;" vertex="1" parent="1">
          <mxGeometry x="1300" y="960" width="70" height="30" as="geometry" />
        </mxCell>
        <mxCell id="TFXRRNLh6fONxXUD0vy4-656" value="Accesorio" style="shape=ext;margin=3;double=1;whiteSpace=wrap;html=1;align=center;rounded=0;glass=0;fillStyle=solid;strokeColor=#666666;verticalAlign=middle;fontFamily=Helvetica;fontSize=12;fontColor=#333333;fillColor=#f5f5f5;" vertex="1" parent="1">
          <mxGeometry x="970" y="854.9999999999999" width="100" height="40" as="geometry" />
        </mxCell>
        <mxCell id="TFXRRNLh6fONxXUD0vy4-662" value="&lt;u&gt;id_accesorio&lt;/u&gt;" style="ellipse;whiteSpace=wrap;html=1;align=center;rounded=0;glass=0;fillStyle=solid;strokeColor=default;verticalAlign=middle;fontFamily=Helvetica;fontSize=12;fontColor=default;fillColor=default;gradientColor=none;" vertex="1" parent="1">
          <mxGeometry x="890" y="949.9999999999999" width="80" height="30" as="geometry" />
        </mxCell>
        <mxCell id="TFXRRNLh6fONxXUD0vy4-663" value="Cantidad" style="ellipse;whiteSpace=wrap;html=1;align=center;rounded=0;glass=0;fillStyle=solid;strokeColor=default;verticalAlign=middle;fontFamily=Helvetica;fontSize=12;fontColor=default;fillColor=default;gradientColor=none;" vertex="1" parent="1">
          <mxGeometry x="1380" y="880" width="65" height="30" as="geometry" />
        </mxCell>
        <mxCell id="TFXRRNLh6fONxXUD0vy4-664" value="Cantidad" style="ellipse;whiteSpace=wrap;html=1;align=center;rounded=0;glass=0;fillStyle=solid;strokeColor=default;verticalAlign=middle;fontFamily=Helvetica;fontSize=12;fontColor=default;fillColor=default;gradientColor=none;" vertex="1" parent="1">
          <mxGeometry x="1087.5" y="904.9999999999999" width="65" height="30" as="geometry" />
        </mxCell>
        <mxCell id="TFXRRNLh6fONxXUD0vy4-665" value="Tipo" style="ellipse;whiteSpace=wrap;html=1;align=center;rounded=0;glass=0;fillStyle=solid;strokeColor=default;verticalAlign=middle;fontFamily=Helvetica;fontSize=12;fontColor=default;fillColor=default;gradientColor=none;" vertex="1" parent="1">
          <mxGeometry x="1050" y="939.9999999999999" width="70" height="30" as="geometry" />
        </mxCell>
        <mxCell id="TFXRRNLh6fONxXUD0vy4-666" value="Material" style="ellipse;whiteSpace=wrap;html=1;align=center;rounded=0;glass=0;fillStyle=solid;strokeColor=default;verticalAlign=middle;fontFamily=Helvetica;fontSize=12;fontColor=default;fillColor=default;gradientColor=none;" vertex="1" parent="1">
          <mxGeometry x="990.5" y="964.9999999999999" width="64.5" height="25" as="geometry" />
        </mxCell>
        <mxCell id="TFXRRNLh6fONxXUD0vy4-670" value="" style="endArrow=none;html=1;rounded=0;fontFamily=Helvetica;fontSize=12;fontColor=default;entryX=0.25;entryY=1;entryDx=0;entryDy=0;exitX=0.5;exitY=0;exitDx=0;exitDy=0;" edge="1" parent="1" source="TFXRRNLh6fONxXUD0vy4-635" target="TFXRRNLh6fONxXUD0vy4-632">
          <mxGeometry width="50" height="50" relative="1" as="geometry">
            <mxPoint x="725" y="1325" as="sourcePoint" />
            <mxPoint x="775" y="1275" as="targetPoint" />
          </mxGeometry>
        </mxCell>
        <mxCell id="TFXRRNLh6fONxXUD0vy4-671" value="" style="endArrow=none;html=1;rounded=0;fontFamily=Helvetica;fontSize=12;fontColor=default;entryX=0.5;entryY=1;entryDx=0;entryDy=0;exitX=0.5;exitY=0;exitDx=0;exitDy=0;" edge="1" parent="1" source="TFXRRNLh6fONxXUD0vy4-651" target="TFXRRNLh6fONxXUD0vy4-632">
          <mxGeometry width="50" height="50" relative="1" as="geometry">
            <mxPoint x="725" y="1325" as="sourcePoint" />
            <mxPoint x="775" y="1275" as="targetPoint" />
          </mxGeometry>
        </mxCell>
        <mxCell id="TFXRRNLh6fONxXUD0vy4-672" value="" style="endArrow=none;html=1;rounded=0;fontFamily=Helvetica;fontSize=12;fontColor=default;entryX=0.5;entryY=0;entryDx=0;entryDy=0;exitX=0.75;exitY=1;exitDx=0;exitDy=0;" edge="1" parent="1" source="TFXRRNLh6fONxXUD0vy4-632" target="TFXRRNLh6fONxXUD0vy4-652">
          <mxGeometry width="50" height="50" relative="1" as="geometry">
            <mxPoint x="725" y="1325" as="sourcePoint" />
            <mxPoint x="775" y="1275" as="targetPoint" />
          </mxGeometry>
        </mxCell>
        <mxCell id="TFXRRNLh6fONxXUD0vy4-675" value="" style="endArrow=none;html=1;rounded=0;fontFamily=Helvetica;fontSize=12;fontColor=default;entryX=0.5;entryY=0;entryDx=0;entryDy=0;exitX=0.5;exitY=1;exitDx=0;exitDy=0;" edge="1" parent="1" source="TFXRRNLh6fONxXUD0vy4-633" target="TFXRRNLh6fONxXUD0vy4-655">
          <mxGeometry width="50" height="50" relative="1" as="geometry">
            <mxPoint x="1110" y="995" as="sourcePoint" />
            <mxPoint x="1160" y="945" as="targetPoint" />
          </mxGeometry>
        </mxCell>
        <mxCell id="TFXRRNLh6fONxXUD0vy4-676" value="" style="endArrow=none;html=1;rounded=0;fontFamily=Helvetica;fontSize=12;fontColor=default;entryX=0.14;entryY=1.025;entryDx=0;entryDy=0;entryPerimeter=0;exitX=1;exitY=0;exitDx=0;exitDy=0;" edge="1" parent="1" source="TFXRRNLh6fONxXUD0vy4-636" target="TFXRRNLh6fONxXUD0vy4-633">
          <mxGeometry width="50" height="50" relative="1" as="geometry">
            <mxPoint x="1110" y="995" as="sourcePoint" />
            <mxPoint x="1160" y="945" as="targetPoint" />
          </mxGeometry>
        </mxCell>
        <mxCell id="TFXRRNLh6fONxXUD0vy4-677" value="" style="endArrow=none;html=1;rounded=0;fontFamily=Helvetica;fontSize=12;fontColor=default;entryX=0.75;entryY=1;entryDx=0;entryDy=0;exitX=0;exitY=0;exitDx=0;exitDy=0;" edge="1" parent="1" source="TFXRRNLh6fONxXUD0vy4-653" target="TFXRRNLh6fONxXUD0vy4-633">
          <mxGeometry width="50" height="50" relative="1" as="geometry">
            <mxPoint x="1110" y="995" as="sourcePoint" />
            <mxPoint x="1160" y="945" as="targetPoint" />
          </mxGeometry>
        </mxCell>
        <mxCell id="TFXRRNLh6fONxXUD0vy4-678" value="" style="endArrow=none;html=1;rounded=0;fontFamily=Helvetica;fontSize=12;fontColor=default;entryX=1;entryY=1;entryDx=0;entryDy=0;exitX=0;exitY=0;exitDx=0;exitDy=0;" edge="1" parent="1" source="TFXRRNLh6fONxXUD0vy4-663" target="TFXRRNLh6fONxXUD0vy4-633">
          <mxGeometry width="50" height="50" relative="1" as="geometry">
            <mxPoint x="1110" y="995" as="sourcePoint" />
            <mxPoint x="1160" y="945" as="targetPoint" />
          </mxGeometry>
        </mxCell>
        <mxCell id="TFXRRNLh6fONxXUD0vy4-679" value="" style="endArrow=none;html=1;rounded=0;fontFamily=Helvetica;fontSize=12;fontColor=default;entryX=0.5;entryY=0;entryDx=0;entryDy=0;exitX=0;exitY=1;exitDx=0;exitDy=0;" edge="1" parent="1" source="TFXRRNLh6fONxXUD0vy4-656" target="TFXRRNLh6fONxXUD0vy4-662">
          <mxGeometry width="50" height="50" relative="1" as="geometry">
            <mxPoint x="610" y="970" as="sourcePoint" />
            <mxPoint x="660" y="919.9999999999999" as="targetPoint" />
          </mxGeometry>
        </mxCell>
        <mxCell id="TFXRRNLh6fONxXUD0vy4-680" value="" style="endArrow=none;html=1;rounded=0;fontFamily=Helvetica;fontSize=12;fontColor=default;entryX=0.25;entryY=1;entryDx=0;entryDy=0;exitX=0.5;exitY=0;exitDx=0;exitDy=0;" edge="1" parent="1" source="TFXRRNLh6fONxXUD0vy4-666" target="TFXRRNLh6fONxXUD0vy4-656">
          <mxGeometry width="50" height="50" relative="1" as="geometry">
            <mxPoint x="610" y="970" as="sourcePoint" />
            <mxPoint x="660" y="919.9999999999999" as="targetPoint" />
          </mxGeometry>
        </mxCell>
        <mxCell id="TFXRRNLh6fONxXUD0vy4-681" value="" style="endArrow=none;html=1;rounded=0;fontFamily=Helvetica;fontSize=12;fontColor=default;entryX=0.64;entryY=1.05;entryDx=0;entryDy=0;entryPerimeter=0;" edge="1" parent="1" source="TFXRRNLh6fONxXUD0vy4-665" target="TFXRRNLh6fONxXUD0vy4-656">
          <mxGeometry width="50" height="50" relative="1" as="geometry">
            <mxPoint x="610" y="970" as="sourcePoint" />
            <mxPoint x="660" y="919.9999999999999" as="targetPoint" />
          </mxGeometry>
        </mxCell>
        <mxCell id="TFXRRNLh6fONxXUD0vy4-682" value="" style="endArrow=none;html=1;rounded=0;fontFamily=Helvetica;fontSize=12;fontColor=default;entryX=1;entryY=1;entryDx=0;entryDy=0;exitX=0;exitY=0;exitDx=0;exitDy=0;" edge="1" parent="1" source="TFXRRNLh6fONxXUD0vy4-664" target="TFXRRNLh6fONxXUD0vy4-656">
          <mxGeometry width="50" height="50" relative="1" as="geometry">
            <mxPoint x="1094.5198878330407" y="897.3690603181018" as="sourcePoint" />
            <mxPoint x="660" y="919.9999999999999" as="targetPoint" />
          </mxGeometry>
        </mxCell>
        <mxCell id="TFXRRNLh6fONxXUD0vy4-691" value="Nombre" style="ellipse;whiteSpace=wrap;html=1;align=center;rounded=0;glass=0;fillStyle=solid;strokeColor=default;verticalAlign=middle;fontFamily=Helvetica;fontSize=12;fontColor=default;fillColor=default;gradientColor=none;" vertex="1" parent="1">
          <mxGeometry x="1020" y="324" width="90" height="35" as="geometry" />
        </mxCell>
        <mxCell id="TFXRRNLh6fONxXUD0vy4-692" value="" style="endArrow=none;html=1;rounded=0;fontFamily=Helvetica;fontSize=12;fontColor=default;entryX=0.5;entryY=1;entryDx=0;entryDy=0;exitX=0.25;exitY=0;exitDx=0;exitDy=0;" edge="1" parent="1" source="TFXRRNLh6fONxXUD0vy4-607" target="TFXRRNLh6fONxXUD0vy4-621">
          <mxGeometry width="50" height="50" relative="1" as="geometry">
            <mxPoint x="760" y="574" as="sourcePoint" />
            <mxPoint x="810" y="524" as="targetPoint" />
            <Array as="points" />
          </mxGeometry>
        </mxCell>
        <mxCell id="TFXRRNLh6fONxXUD0vy4-695" value="" style="endArrow=none;html=1;rounded=0;fontFamily=Helvetica;fontSize=12;fontColor=default;entryX=1;entryY=1;entryDx=0;entryDy=0;exitX=0.75;exitY=0;exitDx=0;exitDy=0;" edge="1" parent="1" source="TFXRRNLh6fONxXUD0vy4-607" target="TFXRRNLh6fONxXUD0vy4-691">
          <mxGeometry width="50" height="50" relative="1" as="geometry">
            <mxPoint x="760" y="574" as="sourcePoint" />
            <mxPoint x="810" y="524" as="targetPoint" />
          </mxGeometry>
        </mxCell>
        <mxCell id="TFXRRNLh6fONxXUD0vy4-696" value="" style="endArrow=none;html=1;rounded=0;fontFamily=Helvetica;fontSize=12;fontColor=default;entryX=0.75;entryY=1;entryDx=0;entryDy=0;" edge="1" parent="1" source="TFXRRNLh6fONxXUD0vy4-639" target="TFXRRNLh6fONxXUD0vy4-17">
          <mxGeometry width="50" height="50" relative="1" as="geometry">
            <mxPoint x="332.5" y="880" as="sourcePoint" />
            <mxPoint x="382.5" y="830" as="targetPoint" />
          </mxGeometry>
        </mxCell>
        <mxCell id="TFXRRNLh6fONxXUD0vy4-697" value="" style="endArrow=none;html=1;rounded=0;fontFamily=Helvetica;fontSize=12;fontColor=default;entryX=0.25;entryY=1;entryDx=0;entryDy=0;exitX=0.5;exitY=0;exitDx=0;exitDy=0;" edge="1" parent="1" source="TFXRRNLh6fONxXUD0vy4-638" target="TFXRRNLh6fONxXUD0vy4-18">
          <mxGeometry width="50" height="50" relative="1" as="geometry">
            <mxPoint x="-139" y="775" as="sourcePoint" />
            <mxPoint x="46.25" y="785" as="targetPoint" />
          </mxGeometry>
        </mxCell>
        <mxCell id="TFXRRNLh6fONxXUD0vy4-699" value="" style="endArrow=none;html=1;rounded=0;fontFamily=Helvetica;fontSize=12;fontColor=default;entryX=0;entryY=0;entryDx=0;entryDy=0;exitX=0.5;exitY=1;exitDx=0;exitDy=0;" edge="1" parent="1" source="TFXRRNLh6fONxXUD0vy4-622" target="TFXRRNLh6fONxXUD0vy4-620">
          <mxGeometry width="50" height="50" relative="1" as="geometry">
            <mxPoint x="690" y="660" as="sourcePoint" />
            <mxPoint x="740" y="610" as="targetPoint" />
          </mxGeometry>
        </mxCell>
        <mxCell id="TFXRRNLh6fONxXUD0vy4-700" value="" style="endArrow=none;html=1;rounded=0;fontFamily=Helvetica;fontSize=12;fontColor=default;entryX=0.5;entryY=1;entryDx=0;entryDy=0;exitX=0.5;exitY=0;exitDx=0;exitDy=0;" edge="1" parent="1" source="TFXRRNLh6fONxXUD0vy4-620" target="TFXRRNLh6fONxXUD0vy4-627">
          <mxGeometry width="50" height="50" relative="1" as="geometry">
            <mxPoint x="690" y="660" as="sourcePoint" />
            <mxPoint x="740" y="610" as="targetPoint" />
          </mxGeometry>
        </mxCell>
        <mxCell id="TFXRRNLh6fONxXUD0vy4-701" value="" style="endArrow=none;html=1;rounded=0;fontFamily=Helvetica;fontSize=12;fontColor=default;entryX=0;entryY=1;entryDx=0;entryDy=0;exitX=0.75;exitY=0;exitDx=0;exitDy=0;" edge="1" parent="1" source="TFXRRNLh6fONxXUD0vy4-620" target="TFXRRNLh6fONxXUD0vy4-625">
          <mxGeometry width="50" height="50" relative="1" as="geometry">
            <mxPoint x="690" y="660" as="sourcePoint" />
            <mxPoint x="740" y="610" as="targetPoint" />
          </mxGeometry>
        </mxCell>
        <mxCell id="TFXRRNLh6fONxXUD0vy4-706" style="edgeStyle=orthogonalEdgeStyle;rounded=0;orthogonalLoop=1;jettySize=auto;html=1;exitX=1;exitY=0.5;exitDx=0;exitDy=0;fontFamily=Helvetica;fontSize=12;fontColor=default;" edge="1" parent="1" source="TFXRRNLh6fONxXUD0vy4-702" target="TFXRRNLh6fONxXUD0vy4-620">
          <mxGeometry relative="1" as="geometry" />
        </mxCell>
        <mxCell id="TFXRRNLh6fONxXUD0vy4-702" value="Gestiona" style="shape=rhombus;perimeter=rhombusPerimeter;whiteSpace=wrap;html=1;align=center;rounded=0;glass=0;fillStyle=solid;strokeColor=#b85450;verticalAlign=middle;fontFamily=Helvetica;fontSize=12;fillColor=#f8cecc;" vertex="1" parent="1">
          <mxGeometry x="543.75" y="650" width="120" height="60" as="geometry" />
        </mxCell>
        <mxCell id="TFXRRNLh6fONxXUD0vy4-703" value="Genera" style="shape=rhombus;perimeter=rhombusPerimeter;whiteSpace=wrap;html=1;align=center;rounded=0;glass=0;fillStyle=solid;strokeColor=#b85450;verticalAlign=middle;fontFamily=Helvetica;fontSize=12;fillColor=#f8cecc;" vertex="1" parent="1">
          <mxGeometry x="931" y="554" width="120" height="60" as="geometry" />
        </mxCell>
        <mxCell id="TFXRRNLh6fONxXUD0vy4-705" value="" style="endArrow=none;html=1;rounded=0;fontFamily=Helvetica;fontSize=12;fontColor=default;entryX=0.75;entryY=0;entryDx=0;entryDy=0;exitX=0;exitY=0.5;exitDx=0;exitDy=0;" edge="1" parent="1" source="TFXRRNLh6fONxXUD0vy4-702" target="TFXRRNLh6fONxXUD0vy4-17">
          <mxGeometry width="50" height="50" relative="1" as="geometry">
            <mxPoint x="672.5" y="880" as="sourcePoint" />
            <mxPoint x="722.5" y="830" as="targetPoint" />
            <Array as="points">
              <mxPoint x="475" y="680" />
            </Array>
          </mxGeometry>
        </mxCell>
        <mxCell id="TFXRRNLh6fONxXUD0vy4-709" value="Corte" style="shape=ext;margin=3;double=1;whiteSpace=wrap;html=1;align=center;rounded=0;glass=0;fillStyle=solid;strokeColor=#666666;verticalAlign=middle;fontFamily=Helvetica;fontSize=12;fillColor=#f5f5f5;fontColor=#333333;" vertex="1" parent="1">
          <mxGeometry x="205" y="1310" width="100" height="40" as="geometry" />
        </mxCell>
        <mxCell id="TFXRRNLh6fONxXUD0vy4-711" value="&lt;u&gt;id_corte&lt;/u&gt;" style="ellipse;whiteSpace=wrap;html=1;align=center;rounded=0;glass=0;fillStyle=solid;strokeColor=default;verticalAlign=middle;fontFamily=Helvetica;fontSize=12;fontColor=default;fillColor=default;gradientColor=none;" vertex="1" parent="1">
          <mxGeometry x="235" y="1400" width="80" height="30" as="geometry" />
        </mxCell>
        <mxCell id="TFXRRNLh6fONxXUD0vy4-712" value="Cantidad" style="ellipse;whiteSpace=wrap;html=1;align=center;rounded=0;glass=0;fillStyle=solid;strokeColor=default;verticalAlign=middle;fontFamily=Helvetica;fontSize=12;fontColor=default;fillColor=default;gradientColor=none;" vertex="1" parent="1">
          <mxGeometry x="185" y="1445" width="75" height="25" as="geometry" />
        </mxCell>
        <mxCell id="TFXRRNLh6fONxXUD0vy4-715" value="TamaÃ±o" style="ellipse;whiteSpace=wrap;html=1;align=center;rounded=0;glass=0;fillStyle=solid;strokeColor=default;verticalAlign=middle;fontFamily=Helvetica;fontSize=12;fontColor=default;fillColor=default;gradientColor=none;" vertex="1" parent="1">
          <mxGeometry x="325" y="1425" width="67.5" height="30" as="geometry" />
        </mxCell>
        <mxCell id="TFXRRNLh6fONxXUD0vy4-717" value="" style="endArrow=none;html=1;rounded=0;fontFamily=Helvetica;fontSize=12;fontColor=default;entryX=0.75;entryY=1;entryDx=0;entryDy=0;exitX=0.5;exitY=0;exitDx=0;exitDy=0;" edge="1" parent="1" source="TFXRRNLh6fONxXUD0vy4-711" target="TFXRRNLh6fONxXUD0vy4-709">
          <mxGeometry width="50" height="50" relative="1" as="geometry">
            <mxPoint x="775" y="1430" as="sourcePoint" />
            <mxPoint x="825" y="1380" as="targetPoint" />
          </mxGeometry>
        </mxCell>
        <mxCell id="TFXRRNLh6fONxXUD0vy4-718" value="" style="endArrow=none;html=1;rounded=0;fontFamily=Helvetica;fontSize=12;fontColor=default;entryX=0.25;entryY=1;entryDx=0;entryDy=0;exitX=0.5;exitY=0;exitDx=0;exitDy=0;" edge="1" parent="1" source="TFXRRNLh6fONxXUD0vy4-712" target="TFXRRNLh6fONxXUD0vy4-709">
          <mxGeometry width="50" height="50" relative="1" as="geometry">
            <mxPoint x="775" y="1430" as="sourcePoint" />
            <mxPoint x="825" y="1380" as="targetPoint" />
          </mxGeometry>
        </mxCell>
        <mxCell id="TFXRRNLh6fONxXUD0vy4-719" value="" style="endArrow=none;html=1;rounded=0;fontFamily=Helvetica;fontSize=12;fontColor=default;entryX=1;entryY=1;entryDx=0;entryDy=0;exitX=0.5;exitY=0;exitDx=0;exitDy=0;" edge="1" parent="1" source="TFXRRNLh6fONxXUD0vy4-715" target="TFXRRNLh6fONxXUD0vy4-709">
          <mxGeometry width="50" height="50" relative="1" as="geometry">
            <mxPoint x="360.43921158517605" y="1420.2239951737338" as="sourcePoint" />
            <mxPoint x="325" y="1330" as="targetPoint" />
          </mxGeometry>
        </mxCell>
        <mxCell id="TFXRRNLh6fONxXUD0vy4-726" style="edgeStyle=orthogonalEdgeStyle;rounded=0;orthogonalLoop=1;jettySize=auto;html=1;exitX=0;exitY=0.5;exitDx=0;exitDy=0;entryX=1;entryY=0.5;entryDx=0;entryDy=0;fontFamily=Helvetica;fontSize=12;fontColor=default;" edge="1" parent="1" source="TFXRRNLh6fONxXUD0vy4-723" target="TFXRRNLh6fONxXUD0vy4-709">
          <mxGeometry relative="1" as="geometry" />
        </mxCell>
        <mxCell id="TFXRRNLh6fONxXUD0vy4-723" value="Produce" style="shape=rhombus;perimeter=rhombusPerimeter;whiteSpace=wrap;html=1;align=center;rounded=0;glass=0;fillStyle=solid;strokeColor=#b85450;verticalAlign=middle;fontFamily=Helvetica;fontSize=12;fillColor=#f8cecc;" vertex="1" parent="1">
          <mxGeometry x="380" y="1300" width="120" height="60" as="geometry" />
        </mxCell>
        <mxCell id="TFXRRNLh6fONxXUD0vy4-724" value="" style="endArrow=none;html=1;rounded=0;fontFamily=Helvetica;fontSize=12;fontColor=default;entryX=1;entryY=0.5;entryDx=0;entryDy=0;" edge="1" parent="1" source="TFXRRNLh6fONxXUD0vy4-632" target="TFXRRNLh6fONxXUD0vy4-723">
          <mxGeometry width="50" height="50" relative="1" as="geometry">
            <mxPoint x="585" y="1330" as="sourcePoint" />
            <mxPoint x="825" y="1290" as="targetPoint" />
          </mxGeometry>
        </mxCell>
        <mxCell id="TFXRRNLh6fONxXUD0vy4-731" style="edgeStyle=orthogonalEdgeStyle;rounded=0;orthogonalLoop=1;jettySize=auto;html=1;exitX=0.5;exitY=1;exitDx=0;exitDy=0;entryX=0;entryY=0.5;entryDx=0;entryDy=0;fontFamily=Helvetica;fontSize=12;fontColor=default;" edge="1" parent="1" source="TFXRRNLh6fONxXUD0vy4-729" target="TFXRRNLh6fONxXUD0vy4-709">
          <mxGeometry relative="1" as="geometry" />
        </mxCell>
        <mxCell id="TFXRRNLh6fONxXUD0vy4-729" value="Realiza" style="shape=rhombus;perimeter=rhombusPerimeter;whiteSpace=wrap;html=1;align=center;rounded=0;glass=0;fillStyle=solid;strokeColor=#b85450;verticalAlign=middle;fontFamily=Helvetica;fontSize=12;fillColor=#f8cecc;" vertex="1" parent="1">
          <mxGeometry x="-280" y="845" width="120" height="60" as="geometry" />
        </mxCell>
        <mxCell id="TFXRRNLh6fONxXUD0vy4-730" value="" style="endArrow=none;html=1;rounded=0;fontFamily=Helvetica;fontSize=12;fontColor=default;entryX=0;entryY=0.5;entryDx=0;entryDy=0;exitX=0.5;exitY=0;exitDx=0;exitDy=0;" edge="1" parent="1" source="TFXRRNLh6fONxXUD0vy4-729" target="TFXRRNLh6fONxXUD0vy4-18">
          <mxGeometry width="50" height="50" relative="1" as="geometry">
            <mxPoint x="-66.25" y="775" as="sourcePoint" />
            <mxPoint x="630" y="840" as="targetPoint" />
            <Array as="points">
              <mxPoint x="-220" y="700" />
            </Array>
          </mxGeometry>
        </mxCell>
        <mxCell id="TFXRRNLh6fONxXUD0vy4-733" value="&lt;u&gt;id_zapato&lt;/u&gt;" style="ellipse;whiteSpace=wrap;html=1;align=center;rounded=0;glass=0;fillStyle=solid;strokeColor=default;verticalAlign=middle;fontFamily=Helvetica;fontSize=12;fontColor=default;fillColor=default;gradientColor=none;" vertex="1" parent="1">
          <mxGeometry x="367.5" y="880" width="100" height="40" as="geometry" />
        </mxCell>
        <mxCell id="TFXRRNLh6fONxXUD0vy4-735" value="" style="endArrow=none;html=1;rounded=0;fontFamily=Helvetica;fontSize=12;fontColor=default;entryX=0.75;entryY=0;entryDx=0;entryDy=0;exitX=0.5;exitY=1;exitDx=0;exitDy=0;" edge="1" parent="1" source="TFXRRNLh6fONxXUD0vy4-733" target="TFXRRNLh6fONxXUD0vy4-780">
          <mxGeometry width="50" height="50" relative="1" as="geometry">
            <mxPoint x="660" y="930" as="sourcePoint" />
            <mxPoint x="382.49999999999955" y="920" as="targetPoint" />
          </mxGeometry>
        </mxCell>
        <mxCell id="TFXRRNLh6fONxXUD0vy4-744" style="edgeStyle=orthogonalEdgeStyle;rounded=0;orthogonalLoop=1;jettySize=auto;html=1;exitX=1;exitY=0.5;exitDx=0;exitDy=0;fontFamily=Helvetica;fontSize=12;fontColor=default;entryX=0.75;entryY=1;entryDx=0;entryDy=0;" edge="1" parent="1" source="TFXRRNLh6fONxXUD0vy4-742" target="TFXRRNLh6fONxXUD0vy4-631">
          <mxGeometry relative="1" as="geometry">
            <mxPoint x="830" y="780" as="targetPoint" />
          </mxGeometry>
        </mxCell>
        <mxCell id="TFXRRNLh6fONxXUD0vy4-742" value="Esta compuesto" style="shape=rhombus;perimeter=rhombusPerimeter;whiteSpace=wrap;html=1;align=center;rounded=0;glass=0;fillStyle=solid;strokeColor=#b85450;verticalAlign=middle;fontFamily=Helvetica;fontSize=12;fillColor=#f8cecc;" vertex="1" parent="1">
          <mxGeometry x="535" y="940" width="120" height="60" as="geometry" />
        </mxCell>
        <mxCell id="TFXRRNLh6fONxXUD0vy4-747" style="edgeStyle=orthogonalEdgeStyle;rounded=0;orthogonalLoop=1;jettySize=auto;html=1;exitX=1;exitY=0.5;exitDx=0;exitDy=0;fontFamily=Helvetica;fontSize=12;fontColor=default;" edge="1" parent="1" source="TFXRRNLh6fONxXUD0vy4-745" target="TFXRRNLh6fONxXUD0vy4-656">
          <mxGeometry relative="1" as="geometry">
            <mxPoint x="910" y="900" as="targetPoint" />
            <Array as="points">
              <mxPoint x="870" y="1100" />
              <mxPoint x="870" y="890" />
              <mxPoint x="910" y="890" />
              <mxPoint x="910" y="875" />
            </Array>
          </mxGeometry>
        </mxCell>
        <mxCell id="TFXRRNLh6fONxXUD0vy4-745" value="Esta compuesto" style="shape=rhombus;perimeter=rhombusPerimeter;whiteSpace=wrap;html=1;align=center;rounded=0;glass=0;fillStyle=solid;strokeColor=#b85450;verticalAlign=middle;fontFamily=Helvetica;fontSize=12;fillColor=#f8cecc;" vertex="1" parent="1">
          <mxGeometry x="480" y="1070" width="120" height="60" as="geometry" />
        </mxCell>
        <mxCell id="TFXRRNLh6fONxXUD0vy4-746" value="" style="endArrow=none;html=1;rounded=0;fontFamily=Helvetica;fontSize=12;fontColor=default;entryX=0;entryY=0.5;entryDx=0;entryDy=0;exitX=1;exitY=0.5;exitDx=0;exitDy=0;" edge="1" parent="1" source="TFXRRNLh6fONxXUD0vy4-780" target="TFXRRNLh6fONxXUD0vy4-742">
          <mxGeometry width="50" height="50" relative="1" as="geometry">
            <mxPoint x="407.49999999999955" y="940" as="sourcePoint" />
            <mxPoint x="810" y="1090" as="targetPoint" />
          </mxGeometry>
        </mxCell>
        <mxCell id="TFXRRNLh6fONxXUD0vy4-748" value="" style="endArrow=none;html=1;rounded=0;fontFamily=Helvetica;fontSize=12;fontColor=default;entryX=0;entryY=0.5;entryDx=0;entryDy=0;exitX=0.75;exitY=1;exitDx=0;exitDy=0;" edge="1" parent="1" source="TFXRRNLh6fONxXUD0vy4-780" target="TFXRRNLh6fONxXUD0vy4-745">
          <mxGeometry width="50" height="50" relative="1" as="geometry">
            <mxPoint x="382.49999999999955" y="960" as="sourcePoint" />
            <mxPoint x="740" y="1040" as="targetPoint" />
            <Array as="points">
              <mxPoint x="383" y="1100" />
            </Array>
          </mxGeometry>
        </mxCell>
        <mxCell id="TFXRRNLh6fONxXUD0vy4-751" style="edgeStyle=orthogonalEdgeStyle;rounded=0;orthogonalLoop=1;jettySize=auto;html=1;exitX=1;exitY=0.5;exitDx=0;exitDy=0;fontFamily=Helvetica;fontSize=12;fontColor=default;entryX=0;entryY=0.75;entryDx=0;entryDy=0;" edge="1" parent="1" source="TFXRRNLh6fONxXUD0vy4-749" target="TFXRRNLh6fONxXUD0vy4-633">
          <mxGeometry relative="1" as="geometry">
            <mxPoint x="1220" y="886" as="targetPoint" />
            <Array as="points">
              <mxPoint x="1170" y="1190" />
              <mxPoint x="1170" y="940" />
              <mxPoint x="1210" y="940" />
              <mxPoint x="1210" y="886" />
              <mxPoint x="1241" y="886" />
            </Array>
          </mxGeometry>
        </mxCell>
        <mxCell id="TFXRRNLh6fONxXUD0vy4-749" value="Esta compuesto" style="shape=rhombus;perimeter=rhombusPerimeter;whiteSpace=wrap;html=1;align=center;rounded=0;glass=0;fillStyle=solid;strokeColor=#b85450;verticalAlign=middle;fontFamily=Helvetica;fontSize=12;fillColor=#f8cecc;" vertex="1" parent="1">
          <mxGeometry x="480" y="1160" width="120" height="60" as="geometry" />
        </mxCell>
        <mxCell id="TFXRRNLh6fONxXUD0vy4-753" value="" style="endArrow=none;html=1;rounded=0;fontFamily=Helvetica;fontSize=12;fontColor=default;exitX=1;exitY=0.5;exitDx=0;exitDy=0;entryX=1;entryY=0.5;entryDx=0;entryDy=0;" edge="1" parent="1" source="TFXRRNLh6fONxXUD0vy4-632" target="TFXRRNLh6fONxXUD0vy4-853">
          <mxGeometry width="50" height="50" relative="1" as="geometry">
            <mxPoint x="690" y="1290" as="sourcePoint" />
            <mxPoint x="1410" y="680" as="targetPoint" />
            <Array as="points">
              <mxPoint x="1480" y="1340" />
              <mxPoint x="1480" y="680" />
            </Array>
          </mxGeometry>
        </mxCell>
        <mxCell id="TFXRRNLh6fONxXUD0vy4-754" value="" style="endArrow=none;html=1;rounded=0;fontFamily=Helvetica;fontSize=12;fontColor=default;entryX=0.5;entryY=1;entryDx=0;entryDy=0;exitX=0;exitY=0.5;exitDx=0;exitDy=0;" edge="1" parent="1" source="TFXRRNLh6fONxXUD0vy4-749" target="TFXRRNLh6fONxXUD0vy4-780">
          <mxGeometry width="50" height="50" relative="1" as="geometry">
            <mxPoint x="358" y="1190" as="sourcePoint" />
            <mxPoint x="357.49999999999955" y="960" as="targetPoint" />
            <Array as="points">
              <mxPoint x="358" y="1190" />
            </Array>
          </mxGeometry>
        </mxCell>
        <mxCell id="TFXRRNLh6fONxXUD0vy4-755" value="Esta compuesto" style="shape=rhombus;perimeter=rhombusPerimeter;whiteSpace=wrap;html=1;align=center;rounded=0;glass=0;fillStyle=solid;strokeColor=#b85450;verticalAlign=middle;fontFamily=Helvetica;fontSize=12;fillColor=#f8cecc;" vertex="1" parent="1">
          <mxGeometry x="187.5" y="1130" width="120" height="60" as="geometry" />
        </mxCell>
        <mxCell id="TFXRRNLh6fONxXUD0vy4-756" style="edgeStyle=orthogonalEdgeStyle;rounded=0;orthogonalLoop=1;jettySize=auto;html=1;exitX=0.5;exitY=1;exitDx=0;exitDy=0;entryX=0.425;entryY=0.134;entryDx=0;entryDy=0;entryPerimeter=0;fontFamily=Helvetica;fontSize=12;fontColor=default;" edge="1" parent="1" source="TFXRRNLh6fONxXUD0vy4-755" target="TFXRRNLh6fONxXUD0vy4-709">
          <mxGeometry relative="1" as="geometry" />
        </mxCell>
        <mxCell id="TFXRRNLh6fONxXUD0vy4-757" value="" style="endArrow=none;html=1;rounded=0;fontFamily=Helvetica;fontSize=12;fontColor=default;entryX=0.15;entryY=1;entryDx=0;entryDy=0;entryPerimeter=0;exitX=0.5;exitY=0;exitDx=0;exitDy=0;" edge="1" parent="1" source="TFXRRNLh6fONxXUD0vy4-755" target="TFXRRNLh6fONxXUD0vy4-780">
          <mxGeometry width="50" height="50" relative="1" as="geometry">
            <mxPoint x="690" y="1150" as="sourcePoint" />
            <mxPoint x="320.5" y="961.2400000000002" as="targetPoint" />
            <Array as="points">
              <mxPoint x="320" y="1130" />
            </Array>
          </mxGeometry>
        </mxCell>
        <mxCell id="TFXRRNLh6fONxXUD0vy4-759" value="" style="endArrow=none;html=1;rounded=0;fontFamily=Helvetica;fontSize=12;fontColor=default;entryX=0;entryY=1;entryDx=0;entryDy=0;exitX=1;exitY=0;exitDx=0;exitDy=0;" edge="1" parent="1" source="TFXRRNLh6fONxXUD0vy4-637" target="TFXRRNLh6fONxXUD0vy4-16">
          <mxGeometry width="50" height="50" relative="1" as="geometry">
            <mxPoint x="690" y="1150" as="sourcePoint" />
            <mxPoint x="740" y="1100" as="targetPoint" />
          </mxGeometry>
        </mxCell>
        <mxCell id="TFXRRNLh6fONxXUD0vy4-776" style="edgeStyle=orthogonalEdgeStyle;rounded=0;orthogonalLoop=1;jettySize=auto;html=1;exitX=1;exitY=0.5;exitDx=0;exitDy=0;fontFamily=Helvetica;fontSize=12;fontColor=default;entryX=0.25;entryY=0;entryDx=0;entryDy=0;" edge="1" parent="1" source="TFXRRNLh6fONxXUD0vy4-760" target="TFXRRNLh6fONxXUD0vy4-780">
          <mxGeometry relative="1" as="geometry">
            <mxPoint x="332.49999999999955" y="920" as="targetPoint" />
          </mxGeometry>
        </mxCell>
        <mxCell id="TFXRRNLh6fONxXUD0vy4-760" value="Hace" style="shape=rhombus;perimeter=rhombusPerimeter;whiteSpace=wrap;html=1;align=center;rounded=0;glass=0;fillStyle=solid;strokeColor=#b85450;verticalAlign=middle;fontFamily=Helvetica;fontSize=12;fillColor=#f8cecc;" vertex="1" parent="1">
          <mxGeometry x="119.99999999999997" y="860" width="120" height="60" as="geometry" />
        </mxCell>
        <mxCell id="TFXRRNLh6fONxXUD0vy4-761" value="" style="endArrow=none;html=1;rounded=0;fontFamily=Helvetica;fontSize=12;fontColor=default;entryX=0.5;entryY=0;entryDx=0;entryDy=0;exitX=0.5;exitY=1;exitDx=0;exitDy=0;" edge="1" parent="1" source="TFXRRNLh6fONxXUD0vy4-16" target="TFXRRNLh6fONxXUD0vy4-760">
          <mxGeometry width="50" height="50" relative="1" as="geometry">
            <mxPoint x="690" y="1150" as="sourcePoint" />
            <mxPoint x="740" y="1100" as="targetPoint" />
            <Array as="points">
              <mxPoint x="240" y="840" />
            </Array>
          </mxGeometry>
        </mxCell>
        <mxCell id="TFXRRNLh6fONxXUD0vy4-765" style="edgeStyle=orthogonalEdgeStyle;rounded=0;orthogonalLoop=1;jettySize=auto;html=1;exitX=0.5;exitY=1;exitDx=0;exitDy=0;entryX=0.5;entryY=0;entryDx=0;entryDy=0;fontFamily=Helvetica;fontSize=12;fontColor=default;" edge="1" parent="1" source="TFXRRNLh6fONxXUD0vy4-764" target="TFXRRNLh6fONxXUD0vy4-780">
          <mxGeometry relative="1" as="geometry">
            <mxPoint x="357.49999999999955" y="920" as="targetPoint" />
          </mxGeometry>
        </mxCell>
        <mxCell id="TFXRRNLh6fONxXUD0vy4-764" value="Ayuda Hacer" style="shape=rhombus;perimeter=rhombusPerimeter;whiteSpace=wrap;html=1;align=center;rounded=0;glass=0;fillStyle=solid;strokeColor=#b85450;verticalAlign=middle;fontFamily=Helvetica;fontSize=12;fillColor=#f8cecc;" vertex="1" parent="1">
          <mxGeometry x="277.5" y="800" width="120" height="60" as="geometry" />
        </mxCell>
        <mxCell id="TFXRRNLh6fONxXUD0vy4-766" value="" style="endArrow=none;html=1;rounded=0;fontFamily=Helvetica;fontSize=12;fontColor=default;entryX=0;entryY=0.5;entryDx=0;entryDy=0;exitX=0.5;exitY=0;exitDx=0;exitDy=0;" edge="1" parent="1" source="TFXRRNLh6fONxXUD0vy4-764" target="TFXRRNLh6fONxXUD0vy4-17">
          <mxGeometry width="50" height="50" relative="1" as="geometry">
            <mxPoint x="690" y="1150" as="sourcePoint" />
            <mxPoint x="740" y="1100" as="targetPoint" />
            <Array as="points">
              <mxPoint x="338" y="755" />
            </Array>
          </mxGeometry>
        </mxCell>
        <mxCell id="TFXRRNLh6fONxXUD0vy4-768" value="Modelo" style="whiteSpace=wrap;html=1;align=center;rounded=0;glass=0;fillStyle=solid;strokeColor=#6c8ebf;verticalAlign=middle;fontFamily=Helvetica;fontSize=12;fillColor=#dae8fc;" vertex="1" parent="1">
          <mxGeometry x="-116.25" y="940" width="100" height="40" as="geometry" />
        </mxCell>
        <mxCell id="TFXRRNLh6fONxXUD0vy4-770" value="&lt;u&gt;Id_modelo&lt;/u&gt;" style="ellipse;whiteSpace=wrap;html=1;align=center;rounded=0;glass=0;fillStyle=solid;strokeColor=default;verticalAlign=middle;fontFamily=Helvetica;fontSize=12;fontColor=default;fillColor=default;gradientColor=none;" vertex="1" parent="1">
          <mxGeometry x="-190" y="900" width="70" height="25" as="geometry" />
        </mxCell>
        <mxCell id="TFXRRNLh6fONxXUD0vy4-771" value="" style="endArrow=none;html=1;rounded=0;fontFamily=Helvetica;fontSize=12;fontColor=default;exitX=0.5;exitY=1;exitDx=0;exitDy=0;" edge="1" parent="1" source="TFXRRNLh6fONxXUD0vy4-770" target="TFXRRNLh6fONxXUD0vy4-768">
          <mxGeometry width="50" height="50" relative="1" as="geometry">
            <mxPoint x="590" y="970" as="sourcePoint" />
            <mxPoint x="640" y="920" as="targetPoint" />
          </mxGeometry>
        </mxCell>
        <mxCell id="TFXRRNLh6fONxXUD0vy4-777" style="edgeStyle=orthogonalEdgeStyle;rounded=0;orthogonalLoop=1;jettySize=auto;html=1;exitX=1;exitY=0.5;exitDx=0;exitDy=0;fontFamily=Helvetica;fontSize=12;fontColor=default;entryX=0;entryY=0.75;entryDx=0;entryDy=0;" edge="1" parent="1" source="TFXRRNLh6fONxXUD0vy4-773" target="TFXRRNLh6fONxXUD0vy4-780">
          <mxGeometry relative="1" as="geometry">
            <mxPoint x="307.49999999999955" y="940.0588235294117" as="targetPoint" />
          </mxGeometry>
        </mxCell>
        <mxCell id="TFXRRNLh6fONxXUD0vy4-773" value="Contiene" style="shape=rhombus;perimeter=rhombusPerimeter;whiteSpace=wrap;html=1;align=center;rounded=0;glass=0;fillStyle=solid;strokeColor=#b85450;verticalAlign=middle;fontFamily=Helvetica;fontSize=12;fillColor=#f8cecc;" vertex="1" parent="1">
          <mxGeometry x="43.74999999999999" y="930" width="120" height="60" as="geometry" />
        </mxCell>
        <mxCell id="TFXRRNLh6fONxXUD0vy4-774" value="" style="endArrow=none;html=1;rounded=0;fontFamily=Helvetica;fontSize=12;fontColor=default;entryX=1;entryY=0.5;entryDx=0;entryDy=0;exitX=0;exitY=0.5;exitDx=0;exitDy=0;" edge="1" parent="1" source="TFXRRNLh6fONxXUD0vy4-773" target="TFXRRNLh6fONxXUD0vy4-768">
          <mxGeometry width="50" height="50" relative="1" as="geometry">
            <mxPoint x="650" y="990" as="sourcePoint" />
            <mxPoint x="700" y="940" as="targetPoint" />
          </mxGeometry>
        </mxCell>
        <mxCell id="TFXRRNLh6fONxXUD0vy4-775" style="edgeStyle=orthogonalEdgeStyle;rounded=0;orthogonalLoop=1;jettySize=auto;html=1;exitX=0.5;exitY=1;exitDx=0;exitDy=0;fontFamily=Helvetica;fontSize=12;fontColor=default;" edge="1" parent="1" source="TFXRRNLh6fONxXUD0vy4-760" target="TFXRRNLh6fONxXUD0vy4-760">
          <mxGeometry relative="1" as="geometry" />
        </mxCell>
        <mxCell id="TFXRRNLh6fONxXUD0vy4-780" value="Zapato" style="shape=ext;margin=3;double=1;whiteSpace=wrap;html=1;align=center;rounded=0;glass=0;fillStyle=solid;strokeColor=#666666;verticalAlign=middle;fontFamily=Helvetica;fontSize=12;fontColor=#333333;fillColor=#f5f5f5;" vertex="1" parent="1">
          <mxGeometry x="305" y="950" width="100" height="40" as="geometry" />
        </mxCell>
        <mxCell id="TFXRRNLh6fONxXUD0vy4-782" value="" style="endArrow=none;html=1;rounded=0;fontFamily=Helvetica;fontSize=12;fontColor=default;entryX=0.75;entryY=0;entryDx=0;entryDy=0;exitX=0.5;exitY=1;exitDx=0;exitDy=0;" edge="1" parent="1" source="TFXRRNLh6fONxXUD0vy4-836" target="TFXRRNLh6fONxXUD0vy4-768">
          <mxGeometry width="50" height="50" relative="1" as="geometry">
            <mxPoint x="-0.625" y="890" as="sourcePoint" />
            <mxPoint y="1010" as="targetPoint" />
          </mxGeometry>
        </mxCell>
        <mxCell id="TFXRRNLh6fONxXUD0vy4-792" value="Lote_zapato" style="shape=ext;margin=3;double=1;whiteSpace=wrap;html=1;align=center;rounded=0;glass=0;fillStyle=solid;strokeColor=#666666;verticalAlign=middle;fontFamily=Helvetica;fontSize=12;fontColor=#333333;fillColor=#f5f5f5;" vertex="1" parent="1">
          <mxGeometry x="-116.25" y="1130" width="100" height="40" as="geometry" />
        </mxCell>
        <mxCell id="TFXRRNLh6fONxXUD0vy4-793" value="id_lote_zapato" style="ellipse;whiteSpace=wrap;html=1;align=center;rounded=0;glass=0;fillStyle=solid;strokeColor=default;verticalAlign=middle;fontFamily=Helvetica;fontSize=12;fontColor=default;fillColor=default;gradientColor=none;" vertex="1" parent="1">
          <mxGeometry x="-170" y="1220" width="100" height="40" as="geometry" />
        </mxCell>
        <mxCell id="TFXRRNLh6fONxXUD0vy4-794" value="Fecha" style="ellipse;whiteSpace=wrap;html=1;align=center;rounded=0;glass=0;fillStyle=solid;strokeColor=default;verticalAlign=middle;fontFamily=Helvetica;fontSize=12;fontColor=default;fillColor=default;gradientColor=none;" vertex="1" parent="1">
          <mxGeometry x="-42.50000000000001" y="1210" width="100" height="40" as="geometry" />
        </mxCell>
        <mxCell id="TFXRRNLh6fONxXUD0vy4-795" value="Cantidad" style="ellipse;whiteSpace=wrap;html=1;align=center;dashed=1;rounded=0;glass=0;fillStyle=solid;strokeColor=default;verticalAlign=middle;fontFamily=Helvetica;fontSize=12;fontColor=default;fillColor=default;gradientColor=none;" vertex="1" parent="1">
          <mxGeometry x="57.5" y="1170" width="100" height="40" as="geometry" />
        </mxCell>
        <mxCell id="TFXRRNLh6fONxXUD0vy4-796" value="" style="endArrow=none;html=1;rounded=0;fontFamily=Helvetica;fontSize=12;fontColor=default;entryX=1;entryY=0.5;entryDx=0;entryDy=0;exitX=0;exitY=0;exitDx=0;exitDy=0;" edge="1" parent="1" source="TFXRRNLh6fONxXUD0vy4-795" target="TFXRRNLh6fONxXUD0vy4-792">
          <mxGeometry width="50" height="50" relative="1" as="geometry">
            <mxPoint x="687.5" y="1130" as="sourcePoint" />
            <mxPoint x="737.5" y="1080" as="targetPoint" />
          </mxGeometry>
        </mxCell>
        <mxCell id="TFXRRNLh6fONxXUD0vy4-797" value="" style="endArrow=none;html=1;rounded=0;fontFamily=Helvetica;fontSize=12;fontColor=default;entryX=0.75;entryY=1;entryDx=0;entryDy=0;" edge="1" parent="1" source="TFXRRNLh6fONxXUD0vy4-794" target="TFXRRNLh6fONxXUD0vy4-792">
          <mxGeometry width="50" height="50" relative="1" as="geometry">
            <mxPoint x="687.5" y="1130" as="sourcePoint" />
            <mxPoint x="737.5" y="1080" as="targetPoint" />
          </mxGeometry>
        </mxCell>
        <mxCell id="TFXRRNLh6fONxXUD0vy4-798" value="" style="endArrow=none;html=1;rounded=0;fontFamily=Helvetica;fontSize=12;fontColor=default;entryX=0.25;entryY=1;entryDx=0;entryDy=0;exitX=0.5;exitY=0;exitDx=0;exitDy=0;" edge="1" parent="1" source="TFXRRNLh6fONxXUD0vy4-793" target="TFXRRNLh6fONxXUD0vy4-792">
          <mxGeometry width="50" height="50" relative="1" as="geometry">
            <mxPoint x="-112.50000000000045" y="1210" as="sourcePoint" />
            <mxPoint x="737.5" y="1080" as="targetPoint" />
          </mxGeometry>
        </mxCell>
        <mxCell id="TFXRRNLh6fONxXUD0vy4-801" style="edgeStyle=orthogonalEdgeStyle;rounded=0;orthogonalLoop=1;jettySize=auto;html=1;exitX=0.5;exitY=0;exitDx=0;exitDy=0;entryX=0.5;entryY=1;entryDx=0;entryDy=0;fontFamily=Helvetica;fontSize=12;fontColor=default;" edge="1" parent="1" source="TFXRRNLh6fONxXUD0vy4-800" target="TFXRRNLh6fONxXUD0vy4-768">
          <mxGeometry relative="1" as="geometry" />
        </mxCell>
        <mxCell id="TFXRRNLh6fONxXUD0vy4-800" value="Contiene" style="shape=rhombus;perimeter=rhombusPerimeter;whiteSpace=wrap;html=1;align=center;rounded=0;glass=0;fillStyle=solid;strokeColor=#b85450;verticalAlign=middle;fontFamily=Helvetica;fontSize=12;fillColor=#f8cecc;" vertex="1" parent="1">
          <mxGeometry x="-126.25" y="1030" width="120" height="60" as="geometry" />
        </mxCell>
        <mxCell id="TFXRRNLh6fONxXUD0vy4-803" value="" style="endArrow=none;html=1;rounded=0;fontFamily=Helvetica;fontSize=12;fontColor=default;entryX=0.5;entryY=1;entryDx=0;entryDy=0;exitX=0.5;exitY=0;exitDx=0;exitDy=0;" edge="1" parent="1" source="TFXRRNLh6fONxXUD0vy4-792" target="TFXRRNLh6fONxXUD0vy4-800">
          <mxGeometry width="50" height="50" relative="1" as="geometry">
            <mxPoint x="650" y="1130" as="sourcePoint" />
            <mxPoint x="700" y="1080" as="targetPoint" />
          </mxGeometry>
        </mxCell>
        <mxCell id="TFXRRNLh6fONxXUD0vy4-805" value="(1,1)" style="text;html=1;align=center;verticalAlign=middle;resizable=0;points=[];autosize=1;strokeColor=none;fillColor=none;fontFamily=Helvetica;fontSize=12;fontColor=default;" vertex="1" parent="1">
          <mxGeometry x="-6.25" y="930" width="50" height="30" as="geometry" />
        </mxCell>
        <mxCell id="TFXRRNLh6fONxXUD0vy4-806" value="(1,N)" style="text;html=1;align=center;verticalAlign=middle;resizable=0;points=[];autosize=1;strokeColor=none;fillColor=none;fontFamily=Helvetica;fontSize=12;fontColor=default;" vertex="1" parent="1">
          <mxGeometry x="177.5" y="935" width="50" height="30" as="geometry" />
        </mxCell>
        <mxCell id="TFXRRNLh6fONxXUD0vy4-807" value="&lt;span style=&quot;background-color: rgb(255, 244, 195);&quot;&gt;1:N&lt;/span&gt;" style="text;html=1;align=center;verticalAlign=middle;resizable=0;points=[];autosize=1;strokeColor=none;fillColor=none;fontFamily=Helvetica;fontSize=12;fontColor=default;" vertex="1" parent="1">
          <mxGeometry x="80" y="905" width="40" height="30" as="geometry" />
        </mxCell>
        <mxCell id="TFXRRNLh6fONxXUD0vy4-808" value="(1,N)" style="text;html=1;align=center;verticalAlign=middle;resizable=0;points=[];autosize=1;strokeColor=none;fillColor=none;fontFamily=Helvetica;fontSize=12;fontColor=default;" vertex="1" parent="1">
          <mxGeometry x="-66.25" y="1090" width="50" height="30" as="geometry" />
        </mxCell>
        <mxCell id="TFXRRNLh6fONxXUD0vy4-809" value="(1,N)" style="text;html=1;align=center;verticalAlign=middle;resizable=0;points=[];autosize=1;strokeColor=none;fillColor=none;fontFamily=Helvetica;fontSize=12;fontColor=default;" vertex="1" parent="1">
          <mxGeometry x="-75" y="988" width="50" height="30" as="geometry" />
        </mxCell>
        <mxCell id="TFXRRNLh6fONxXUD0vy4-810" value="&lt;span style=&quot;background-color: rgb(255, 244, 195);&quot;&gt;M:N&lt;/span&gt;" style="text;html=1;align=center;verticalAlign=middle;resizable=0;points=[];autosize=1;strokeColor=none;fillColor=none;fontFamily=Helvetica;fontSize=12;fontColor=default;" vertex="1" parent="1">
          <mxGeometry x="-10" y="1048" width="50" height="30" as="geometry" />
        </mxCell>
        <mxCell id="TFXRRNLh6fONxXUD0vy4-811" value="(1,N)" style="text;html=1;align=center;verticalAlign=middle;resizable=0;points=[];autosize=1;strokeColor=none;fillColor=none;fontFamily=Helvetica;fontSize=12;fontColor=default;" vertex="1" parent="1">
          <mxGeometry x="-265" y="908" width="50" height="30" as="geometry" />
        </mxCell>
        <mxCell id="TFXRRNLh6fONxXUD0vy4-812" value="(1,1)" style="text;html=1;align=center;verticalAlign=middle;resizable=0;points=[];autosize=1;strokeColor=none;fillColor=none;fontFamily=Helvetica;fontSize=12;fontColor=default;" vertex="1" parent="1">
          <mxGeometry x="-275" y="808" width="50" height="30" as="geometry" />
        </mxCell>
        <mxCell id="TFXRRNLh6fONxXUD0vy4-813" value="&lt;span style=&quot;background-color: rgb(255, 244, 195);&quot;&gt;1:N&lt;/span&gt;" style="text;html=1;align=center;verticalAlign=middle;resizable=0;points=[];autosize=1;strokeColor=none;fillColor=none;fontFamily=Helvetica;fontSize=12;fontColor=default;" vertex="1" parent="1">
          <mxGeometry x="-320" y="860" width="40" height="30" as="geometry" />
        </mxCell>
        <mxCell id="TFXRRNLh6fONxXUD0vy4-814" value="(1,1)" style="text;html=1;align=center;verticalAlign=middle;resizable=0;points=[];autosize=1;strokeColor=none;fillColor=none;fontFamily=Helvetica;fontSize=12;fontColor=default;" vertex="1" parent="1">
          <mxGeometry x="505" y="1298" width="50" height="30" as="geometry" />
        </mxCell>
        <mxCell id="TFXRRNLh6fONxXUD0vy4-816" value="(1,N)" style="text;html=1;align=center;verticalAlign=middle;resizable=0;points=[];autosize=1;strokeColor=none;fillColor=none;fontFamily=Helvetica;fontSize=12;fontColor=default;" vertex="1" parent="1">
          <mxGeometry x="325" y="1298" width="50" height="30" as="geometry" />
        </mxCell>
        <mxCell id="TFXRRNLh6fONxXUD0vy4-817" value="&lt;span style=&quot;background-color: rgb(255, 244, 195);&quot;&gt;1:N&lt;/span&gt;" style="text;html=1;align=center;verticalAlign=middle;resizable=0;points=[];autosize=1;strokeColor=none;fillColor=none;fontFamily=Helvetica;fontSize=12;fontColor=default;" vertex="1" parent="1">
          <mxGeometry x="420" y="1268" width="40" height="30" as="geometry" />
        </mxCell>
        <mxCell id="TFXRRNLh6fONxXUD0vy4-819" value="(1,N)" style="text;html=1;align=center;verticalAlign=middle;resizable=0;points=[];autosize=1;strokeColor=none;fillColor=none;fontFamily=Helvetica;fontSize=12;fontColor=default;" vertex="1" parent="1">
          <mxGeometry x="245" y="1098" width="50" height="30" as="geometry" />
        </mxCell>
        <mxCell id="TFXRRNLh6fONxXUD0vy4-820" value="(1,N)" style="text;html=1;align=center;verticalAlign=middle;resizable=0;points=[];autosize=1;strokeColor=none;fillColor=none;fontFamily=Helvetica;fontSize=12;fontColor=default;" vertex="1" parent="1">
          <mxGeometry x="245" y="1188" width="50" height="30" as="geometry" />
        </mxCell>
        <mxCell id="TFXRRNLh6fONxXUD0vy4-821" value="&lt;span style=&quot;background-color: rgb(255, 244, 195);&quot;&gt;M:N&lt;/span&gt;" style="text;html=1;align=center;verticalAlign=middle;resizable=0;points=[];autosize=1;strokeColor=none;fillColor=none;fontFamily=Helvetica;fontSize=12;fontColor=default;" vertex="1" parent="1">
          <mxGeometry x="172.5" y="1120" width="50" height="30" as="geometry" />
        </mxCell>
        <mxCell id="TFXRRNLh6fONxXUD0vy4-822" value="(1,1)" style="text;html=1;align=center;verticalAlign=middle;resizable=0;points=[];autosize=1;strokeColor=none;fillColor=none;fontFamily=Helvetica;fontSize=12;fontColor=default;" vertex="1" parent="1">
          <mxGeometry x="663.75" y="970" width="50" height="30" as="geometry" />
        </mxCell>
        <mxCell id="TFXRRNLh6fONxXUD0vy4-823" value="(1,N)" style="text;html=1;align=center;verticalAlign=middle;resizable=0;points=[];autosize=1;strokeColor=none;fillColor=none;fontFamily=Helvetica;fontSize=12;fontColor=default;" vertex="1" parent="1">
          <mxGeometry x="465" y="968" width="50" height="30" as="geometry" />
        </mxCell>
        <mxCell id="TFXRRNLh6fONxXUD0vy4-824" value="&lt;span style=&quot;background-color: rgb(255, 244, 195);&quot;&gt;1:N&lt;/span&gt;" style="text;html=1;align=center;verticalAlign=middle;resizable=0;points=[];autosize=1;strokeColor=none;fillColor=none;fontFamily=Helvetica;fontSize=12;fontColor=default;" vertex="1" parent="1">
          <mxGeometry x="575" y="908" width="40" height="30" as="geometry" />
        </mxCell>
        <mxCell id="TFXRRNLh6fONxXUD0vy4-825" value="(0,N)" style="text;html=1;align=center;verticalAlign=middle;resizable=0;points=[];autosize=1;strokeColor=none;fillColor=none;fontFamily=Helvetica;fontSize=12;fontColor=default;" vertex="1" parent="1">
          <mxGeometry x="605" y="1078" width="50" height="30" as="geometry" />
        </mxCell>
        <mxCell id="TFXRRNLh6fONxXUD0vy4-826" value="(0,N)" style="text;html=1;align=center;verticalAlign=middle;resizable=0;points=[];autosize=1;strokeColor=none;fillColor=none;fontFamily=Helvetica;fontSize=12;fontColor=default;" vertex="1" parent="1">
          <mxGeometry x="413" y="1075" width="50" height="30" as="geometry" />
        </mxCell>
        <mxCell id="TFXRRNLh6fONxXUD0vy4-827" value="&lt;span style=&quot;background-color: rgb(255, 244, 195);&quot;&gt;M:N&lt;/span&gt;" style="text;html=1;align=center;verticalAlign=middle;resizable=0;points=[];autosize=1;strokeColor=none;fillColor=none;fontFamily=Helvetica;fontSize=12;fontColor=default;" vertex="1" parent="1">
          <mxGeometry x="515" y="1040" width="50" height="30" as="geometry" />
        </mxCell>
        <mxCell id="TFXRRNLh6fONxXUD0vy4-828" value="(1,1)" style="text;html=1;align=center;verticalAlign=middle;resizable=0;points=[];autosize=1;strokeColor=none;fillColor=none;fontFamily=Helvetica;fontSize=12;fontColor=default;" vertex="1" parent="1">
          <mxGeometry x="625" y="1188" width="50" height="30" as="geometry" />
        </mxCell>
        <mxCell id="TFXRRNLh6fONxXUD0vy4-830" value="(1,N)" style="text;html=1;align=center;verticalAlign=middle;resizable=0;points=[];autosize=1;strokeColor=none;fillColor=none;fontFamily=Helvetica;fontSize=12;fontColor=default;" vertex="1" parent="1">
          <mxGeometry x="425" y="1188" width="50" height="30" as="geometry" />
        </mxCell>
        <mxCell id="TFXRRNLh6fONxXUD0vy4-831" value="&lt;span style=&quot;background-color: rgb(255, 244, 195);&quot;&gt;1:N&lt;/span&gt;" style="text;html=1;align=center;verticalAlign=middle;resizable=0;points=[];autosize=1;strokeColor=none;fillColor=none;fontFamily=Helvetica;fontSize=12;fontColor=default;" vertex="1" parent="1">
          <mxGeometry x="520" y="1135" width="40" height="30" as="geometry" />
        </mxCell>
        <mxCell id="TFXRRNLh6fONxXUD0vy4-832" value="(1,N)" style="text;html=1;align=center;verticalAlign=middle;resizable=0;points=[];autosize=1;strokeColor=none;fillColor=none;fontFamily=Helvetica;fontSize=12;fontColor=default;" vertex="1" parent="1">
          <mxGeometry x="252.5" y="885" width="50" height="30" as="geometry" />
        </mxCell>
        <mxCell id="TFXRRNLh6fONxXUD0vy4-833" value="Nombre" style="ellipse;whiteSpace=wrap;html=1;align=center;rounded=0;glass=0;fillStyle=solid;strokeColor=default;verticalAlign=middle;fontFamily=Helvetica;fontSize=12;fontColor=default;fillColor=default;gradientColor=none;" vertex="1" parent="1">
          <mxGeometry x="-132.5" y="872" width="72.5" height="28" as="geometry" />
        </mxCell>
        <mxCell id="TFXRRNLh6fONxXUD0vy4-834" value="" style="endArrow=none;html=1;rounded=0;fontFamily=Helvetica;fontSize=12;fontColor=default;entryX=0.5;entryY=1;entryDx=0;entryDy=0;exitX=0.5;exitY=0;exitDx=0;exitDy=0;" edge="1" parent="1" source="TFXRRNLh6fONxXUD0vy4-768" target="TFXRRNLh6fONxXUD0vy4-833">
          <mxGeometry width="50" height="50" relative="1" as="geometry">
            <mxPoint x="40" y="860" as="sourcePoint" />
            <mxPoint x="90" y="810" as="targetPoint" />
          </mxGeometry>
        </mxCell>
        <mxCell id="TFXRRNLh6fONxXUD0vy4-835" value="(1,1)" style="text;html=1;align=center;verticalAlign=middle;resizable=0;points=[];autosize=1;strokeColor=none;fillColor=none;fontFamily=Helvetica;fontSize=12;fontColor=default;" vertex="1" parent="1">
          <mxGeometry x="210" y="840" width="50" height="30" as="geometry" />
        </mxCell>
        <mxCell id="TFXRRNLh6fONxXUD0vy4-836" value="Cantidad" style="ellipse;whiteSpace=wrap;html=1;align=center;rounded=0;glass=0;fillStyle=solid;strokeColor=default;verticalAlign=middle;fontFamily=Helvetica;fontSize=12;fontColor=default;fillColor=default;gradientColor=none;" vertex="1" parent="1">
          <mxGeometry x="-50" y="880" width="80" height="20" as="geometry" />
        </mxCell>
        <mxCell id="TFXRRNLh6fONxXUD0vy4-837" value="(1,1)" style="text;html=1;align=center;verticalAlign=middle;resizable=0;points=[];autosize=1;strokeColor=none;fillColor=none;fontFamily=Helvetica;fontSize=12;fontColor=default;" vertex="1" parent="1">
          <mxGeometry x="332.5" y="780" width="50" height="30" as="geometry" />
        </mxCell>
        <mxCell id="TFXRRNLh6fONxXUD0vy4-838" value="(1,N)" style="text;html=1;align=center;verticalAlign=middle;resizable=0;points=[];autosize=1;strokeColor=none;fillColor=none;fontFamily=Helvetica;fontSize=12;fontColor=default;" vertex="1" parent="1">
          <mxGeometry x="337.5" y="850" width="50" height="30" as="geometry" />
        </mxCell>
        <mxCell id="TFXRRNLh6fONxXUD0vy4-839" value="&lt;span style=&quot;background-color: rgb(255, 244, 195);&quot;&gt;1:N&lt;/span&gt;" style="text;html=1;align=center;verticalAlign=middle;resizable=0;points=[];autosize=1;strokeColor=none;fillColor=none;fontFamily=Helvetica;fontSize=12;fontColor=default;" vertex="1" parent="1">
          <mxGeometry x="222.5" y="865" width="40" height="30" as="geometry" />
        </mxCell>
        <mxCell id="TFXRRNLh6fONxXUD0vy4-840" value="&lt;span style=&quot;background-color: rgb(255, 244, 195);&quot;&gt;1:N&lt;/span&gt;" style="text;html=1;align=center;verticalAlign=middle;resizable=0;points=[];autosize=1;strokeColor=none;fillColor=none;fontFamily=Helvetica;fontSize=12;fontColor=default;" vertex="1" parent="1">
          <mxGeometry x="277.5" y="790" width="40" height="30" as="geometry" />
        </mxCell>
        <mxCell id="TFXRRNLh6fONxXUD0vy4-841" value="(1,N)" style="text;html=1;align=center;verticalAlign=middle;resizable=0;points=[];autosize=1;strokeColor=none;fillColor=none;fontFamily=Helvetica;fontSize=12;fontColor=default;" vertex="1" parent="1">
          <mxGeometry x="665" y="648" width="50" height="30" as="geometry" />
        </mxCell>
        <mxCell id="TFXRRNLh6fONxXUD0vy4-842" value="(1,N)" style="text;html=1;align=center;verticalAlign=middle;resizable=0;points=[];autosize=1;strokeColor=none;fillColor=none;fontFamily=Helvetica;fontSize=12;fontColor=default;" vertex="1" parent="1">
          <mxGeometry x="493.75" y="648" width="50" height="30" as="geometry" />
        </mxCell>
        <mxCell id="TFXRRNLh6fONxXUD0vy4-843" value="&lt;span style=&quot;color: rgb(0, 0, 0); font-family: Helvetica; font-size: 12px; font-style: normal; font-variant-ligatures: normal; font-variant-caps: normal; font-weight: 400; letter-spacing: normal; orphans: 2; text-align: center; text-indent: 0px; text-transform: none; widows: 2; word-spacing: 0px; -webkit-text-stroke-width: 0px; white-space: nowrap; background-color: rgb(255, 244, 195); text-decoration-thickness: initial; text-decoration-style: initial; text-decoration-color: initial; display: inline !important; float: none;&quot;&gt;M:N&lt;/span&gt;" style="text;whiteSpace=wrap;html=1;fontFamily=Helvetica;fontSize=12;fontColor=default;" vertex="1" parent="1">
          <mxGeometry x="590" y="620" width="60" height="40" as="geometry" />
        </mxCell>
        <mxCell id="TFXRRNLh6fONxXUD0vy4-844" value="(1,N)" style="text;html=1;align=center;verticalAlign=middle;resizable=0;points=[];autosize=1;strokeColor=none;fillColor=none;fontFamily=Helvetica;fontSize=12;fontColor=default;" vertex="1" parent="1">
          <mxGeometry x="995" y="614" width="50" height="30" as="geometry" />
        </mxCell>
        <mxCell id="TFXRRNLh6fONxXUD0vy4-845" value="(1,1)" style="text;html=1;align=center;verticalAlign=middle;resizable=0;points=[];autosize=1;strokeColor=none;fillColor=none;fontFamily=Helvetica;fontSize=12;fontColor=default;" vertex="1" parent="1">
          <mxGeometry x="990.5" y="515" width="50" height="30" as="geometry" />
        </mxCell>
        <mxCell id="TFXRRNLh6fONxXUD0vy4-846" value="&lt;span style=&quot;color: rgb(0, 0, 0); font-family: Helvetica; font-size: 12px; font-style: normal; font-variant-ligatures: normal; font-variant-caps: normal; font-weight: 400; letter-spacing: normal; orphans: 2; text-align: center; text-indent: 0px; text-transform: none; widows: 2; word-spacing: 0px; -webkit-text-stroke-width: 0px; white-space: nowrap; background-color: rgb(255, 244, 195); text-decoration-thickness: initial; text-decoration-style: initial; text-decoration-color: initial; display: inline !important; float: none;&quot;&gt;1:N&lt;/span&gt;" style="text;whiteSpace=wrap;html=1;fontFamily=Helvetica;fontSize=12;fontColor=default;" vertex="1" parent="1">
          <mxGeometry x="1050" y="565" width="50" height="40" as="geometry" />
        </mxCell>
        <mxCell id="TFXRRNLh6fONxXUD0vy4-857" style="edgeStyle=orthogonalEdgeStyle;rounded=0;orthogonalLoop=1;jettySize=auto;html=1;exitX=0.5;exitY=1;exitDx=0;exitDy=0;fontFamily=Helvetica;fontSize=12;fontColor=default;" edge="1" parent="1" source="TFXRRNLh6fONxXUD0vy4-850" target="TFXRRNLh6fONxXUD0vy4-631">
          <mxGeometry relative="1" as="geometry" />
        </mxCell>
        <mxCell id="TFXRRNLh6fONxXUD0vy4-850" value="Esta compuesto" style="shape=rhombus;perimeter=rhombusPerimeter;whiteSpace=wrap;html=1;align=center;rounded=0;glass=0;fillStyle=solid;strokeColor=#b85450;verticalAlign=middle;fontFamily=Helvetica;fontSize=12;fillColor=#f8cecc;" vertex="1" parent="1">
          <mxGeometry x="760" y="735" width="120" height="60" as="geometry" />
        </mxCell>
        <mxCell id="TFXRRNLh6fONxXUD0vy4-858" style="edgeStyle=orthogonalEdgeStyle;rounded=0;orthogonalLoop=1;jettySize=auto;html=1;exitX=0.5;exitY=1;exitDx=0;exitDy=0;fontFamily=Helvetica;fontSize=12;fontColor=default;" edge="1" parent="1" source="TFXRRNLh6fONxXUD0vy4-851" target="TFXRRNLh6fONxXUD0vy4-656">
          <mxGeometry relative="1" as="geometry" />
        </mxCell>
        <mxCell id="TFXRRNLh6fONxXUD0vy4-851" value="Esta compuesto" style="shape=rhombus;perimeter=rhombusPerimeter;whiteSpace=wrap;html=1;align=center;rounded=0;glass=0;fillStyle=solid;strokeColor=#b85450;verticalAlign=middle;fontFamily=Helvetica;fontSize=12;fillColor=#f8cecc;" vertex="1" parent="1">
          <mxGeometry x="945" y="750" width="120" height="60" as="geometry" />
        </mxCell>
        <mxCell id="TFXRRNLh6fONxXUD0vy4-861" style="edgeStyle=orthogonalEdgeStyle;rounded=0;orthogonalLoop=1;jettySize=auto;html=1;exitX=0.5;exitY=1;exitDx=0;exitDy=0;fontFamily=Helvetica;fontSize=12;fontColor=default;" edge="1" parent="1" source="TFXRRNLh6fONxXUD0vy4-852" target="TFXRRNLh6fONxXUD0vy4-633">
          <mxGeometry relative="1" as="geometry" />
        </mxCell>
        <mxCell id="TFXRRNLh6fONxXUD0vy4-852" value="Esta compuesto" style="shape=rhombus;perimeter=rhombusPerimeter;whiteSpace=wrap;html=1;align=center;rounded=0;glass=0;fillStyle=solid;strokeColor=#b85450;verticalAlign=middle;fontFamily=Helvetica;fontSize=12;fillColor=#f8cecc;" vertex="1" parent="1">
          <mxGeometry x="1241" y="745" width="120" height="60" as="geometry" />
        </mxCell>
        <mxCell id="TFXRRNLh6fONxXUD0vy4-853" value="Esta compuesto" style="shape=rhombus;perimeter=rhombusPerimeter;whiteSpace=wrap;html=1;align=center;rounded=0;glass=0;fillStyle=solid;strokeColor=#b85450;verticalAlign=middle;fontFamily=Helvetica;fontSize=12;fillColor=#f8cecc;" vertex="1" parent="1">
          <mxGeometry x="1170" y="650" width="120" height="60" as="geometry" />
        </mxCell>
        <mxCell id="TFXRRNLh6fONxXUD0vy4-862" value="&lt;span style=&quot;background-color: rgb(255, 244, 195);&quot;&gt;M:N&lt;/span&gt;" style="text;html=1;align=center;verticalAlign=middle;resizable=0;points=[];autosize=1;strokeColor=none;fillColor=none;fontFamily=Helvetica;fontSize=12;fontColor=default;" vertex="1" parent="1">
          <mxGeometry x="700" y="745" width="50" height="30" as="geometry" />
        </mxCell>
        <mxCell id="TFXRRNLh6fONxXUD0vy4-863" value="&lt;span style=&quot;background-color: rgb(255, 244, 195);&quot;&gt;M:N&lt;/span&gt;" style="text;html=1;align=center;verticalAlign=middle;resizable=0;points=[];autosize=1;strokeColor=none;fillColor=none;fontFamily=Helvetica;fontSize=12;fontColor=default;" vertex="1" parent="1">
          <mxGeometry x="905" y="765" width="50" height="30" as="geometry" />
        </mxCell>
        <mxCell id="TFXRRNLh6fONxXUD0vy4-864" value="&lt;span style=&quot;background-color: rgb(255, 244, 195);&quot;&gt;M:N&lt;/span&gt;" style="text;html=1;align=center;verticalAlign=middle;resizable=0;points=[];autosize=1;strokeColor=none;fillColor=none;fontFamily=Helvetica;fontSize=12;fontColor=default;" vertex="1" parent="1">
          <mxGeometry x="1370" y="765" width="50" height="30" as="geometry" />
        </mxCell>
        <mxCell id="TFXRRNLh6fONxXUD0vy4-865" value="&lt;span style=&quot;background-color: rgb(255, 244, 195);&quot;&gt;M:N&lt;/span&gt;" style="text;html=1;align=center;verticalAlign=middle;resizable=0;points=[];autosize=1;strokeColor=none;fillColor=none;fontFamily=Helvetica;fontSize=12;fontColor=default;" vertex="1" parent="1">
          <mxGeometry x="1205" y="618" width="50" height="30" as="geometry" />
        </mxCell>
        <mxCell id="TFXRRNLh6fONxXUD0vy4-866" value="(1,N)" style="text;html=1;align=center;verticalAlign=middle;resizable=0;points=[];autosize=1;strokeColor=none;fillColor=none;fontFamily=Helvetica;fontSize=12;fontColor=default;" vertex="1" parent="1">
          <mxGeometry x="1102.5" y="644" width="50" height="30" as="geometry" />
        </mxCell>
        <mxCell id="TFXRRNLh6fONxXUD0vy4-867" value="(1,N)" style="text;html=1;align=center;verticalAlign=middle;resizable=0;points=[];autosize=1;strokeColor=none;fillColor=none;fontFamily=Helvetica;fontSize=12;fontColor=default;" vertex="1" parent="1">
          <mxGeometry x="1330" y="648" width="50" height="30" as="geometry" />
        </mxCell>
        <mxCell id="TFXRRNLh6fONxXUD0vy4-868" value="(1,N)" style="text;html=1;align=center;verticalAlign=middle;resizable=0;points=[];autosize=1;strokeColor=none;fillColor=none;fontFamily=Helvetica;fontSize=12;fontColor=default;" vertex="1" parent="1">
          <mxGeometry x="1180" y="735" width="50" height="30" as="geometry" />
        </mxCell>
        <mxCell id="TFXRRNLh6fONxXUD0vy4-870" value="(1,N)" style="text;html=1;align=center;verticalAlign=middle;resizable=0;points=[];autosize=1;strokeColor=none;fillColor=none;fontFamily=Helvetica;fontSize=12;fontColor=default;" vertex="1" parent="1">
          <mxGeometry x="1320" y="805" width="50" height="30" as="geometry" />
        </mxCell>
        <mxCell id="TFXRRNLh6fONxXUD0vy4-871" value="(1,N)" style="text;html=1;align=center;verticalAlign=middle;resizable=0;points=[];autosize=1;strokeColor=none;fillColor=none;fontFamily=Helvetica;fontSize=12;fontColor=default;" vertex="1" parent="1">
          <mxGeometry x="1005" y="720" width="50" height="30" as="geometry" />
        </mxCell>
        <mxCell id="TFXRRNLh6fONxXUD0vy4-872" value="(1,N)" style="text;html=1;align=center;verticalAlign=middle;resizable=0;points=[];autosize=1;strokeColor=none;fillColor=none;fontFamily=Helvetica;fontSize=12;fontColor=default;" vertex="1" parent="1">
          <mxGeometry x="1030" y="800" width="50" height="30" as="geometry" />
        </mxCell>
        <mxCell id="TFXRRNLh6fONxXUD0vy4-873" value="(1,N)" style="text;html=1;align=center;verticalAlign=middle;resizable=0;points=[];autosize=1;strokeColor=none;fillColor=none;fontFamily=Helvetica;fontSize=12;fontColor=default;" vertex="1" parent="1">
          <mxGeometry x="850" y="790" width="50" height="30" as="geometry" />
        </mxCell>
        <mxCell id="TFXRRNLh6fONxXUD0vy4-874" value="(1,N)" style="text;html=1;align=center;verticalAlign=middle;resizable=0;points=[];autosize=1;strokeColor=none;fillColor=none;fontFamily=Helvetica;fontSize=12;fontColor=default;" vertex="1" parent="1">
          <mxGeometry x="755" y="710" width="50" height="30" as="geometry" />
        </mxCell>
      </root>
    </mxGraphModel>
  </diagram>
</mxfile>
